<?xml version="1.0" encoding="utf-8"?>
<!-- Generator: Adobe Illustrator 23.0.6, SVG Export Plug-In . SVG Version: 6.00 Build 0)  -->
<svg version="1.1" id="Layer_1" xmlns="http://www.w3.org/2000/svg" xmlns:xlink="http://www.w3.org/1999/xlink" x="0px" y="0px"
	 viewBox="0 0 150 150" style="enable-background:new 0 0 150 150;" xml:space="preserve">
<style type="text/css">
	.st0{fill:#8EC850;}
	.st1{fill:#428DCB;}
	.st2{fill:#2AB998;}
	.st3{fill:none;stroke:#2AB998;stroke-width:0.3066;stroke-miterlimit:10;}
	.st4{fill:#C2579B;}
	.st5{fill:none;stroke:#C2579B;stroke-width:0.3066;stroke-miterlimit:10;}
	.st6{fill:#EC7026;}
	.st7{fill:none;stroke:#EC7026;stroke-width:0.3066;stroke-miterlimit:10;}
	.st8{fill:#3D6599;}
	.st9{fill:#3D6598;}
</style>
<g>
	<path class="st0" d="M2.7,30.9c0-3.9-0.1-7.3-0.3-10.1h8.4l0.5,4.3h0.2c1.4-2,4.2-5,9.7-5c4.2,0,7.4,2.1,8.8,5.4h0.1
		c1.2-1.6,2.6-2.9,4.2-3.8c1.8-1,3.8-1.6,6.1-1.6c6.2,0,10.9,4.3,10.9,13.7v17h-9.8V35.2c0-4.6-1.5-7.2-4.7-7.2
		c-2.3,0-4,1.5-4.6,3.4c-0.3,0.7-0.4,1.7-0.4,2.5v16.9h-9.7V34.7c0-4-1.5-6.7-4.6-6.7c-2.6,0-4.1,1.9-4.7,3.6
		c-0.3,0.8-0.4,1.7-0.4,2.5v16.8H2.7V30.9z"/>
	<path class="st1" d="M61.3,20.5L66.2,36c0.5,1.9,1.2,2.6,1.6,4.3h0.2c0.5-1.7,1-2.5,1.5-4.3l4-15.5h10.7l-7.5,19.2
		C72,52.3,70,56.9,66.7,60.4c-3.8,4.1-7.9,4.9-17.1,2.9l3.8-6.8c1.2-0.2,2.8-0.8,4.4-1.7c1.5-0.8,3.2-2.3,4.2-3.9
		c0.3-0.5,0.5-1,0.5-1.4c0-0.3-0.1-0.8-0.5-1.6L50.2,20.5H61.3z"/>
	<path class="st2" d="M61.2,95.7c-3.1,1-9,2.4-14.8,2.4c-8.1,0-14-1.9-18.1-5.7c-4.1-3.6-6.3-9.2-6.3-15.4C22.1,63,32.9,55,47.4,55
		c5.7,0,11.3,2,14.9-4.2c0,0,0.1,7.1-4.9,10c-3.6,2-5.3,2.1-10.2,2.1c-8.4,0-14.7,4.5-14.7,13.7c0,8.7,5.7,13.9,14,13.9
		c2.3,0,4.1-0.3,4.9-0.6v-9.6h-6.9v-8.3h16.5V95.7z"/>
	<path class="st3" d="M61.2,95.7c-3.1,1-9,2.4-14.8,2.4c-8.1,0-14-1.9-18.1-5.7c-4.1-3.6-6.3-9.2-6.3-15.4C22.1,63,32.9,55,47.4,55
		c5.7,0,11.3,2,14.9-4.2c0,0,0.1,7.1-4.9,10c-3.6,2-5.3,2.1-10.2,2.1c-8.4,0-14.7,4.5-14.7,13.7c0,8.7,5.7,13.9,14,13.9
		c2.3,0,4.1-0.3,4.9-0.6v-9.6h-6.9v-8.3h16.5V95.7z"/>
	<path class="st4" d="M108,76.1c0,13.9-8.8,22.3-21.8,22.3c-13.2,0-20.9-9.5-20.9-21.5c0-12.7,8.5-22.1,21.6-22.1
		C100.6,54.7,108,64.4,108,76.1 M75.9,76.7c0,8.3,4.1,14.1,10.8,14.1c6.8,0,10.7-6.1,10.7-14.4c0-7.6-3.8-14.1-10.7-14.1
		C79.9,62.3,75.9,68.4,75.9,76.7"/>
	<path class="st5" d="M108,76.1c0,13.9-8.8,22.3-21.8,22.3c-13.2,0-20.9-9.5-20.9-21.5c0-12.7,8.5-22.1,21.6-22.1
		C100.6,54.7,108,64.4,108,76.1 M75.9,76.7c0,8.3,4.1,14.1,10.8,14.1c6.8,0,10.7-6.1,10.7-14.4c0-7.6-3.8-14.1-10.7-14.1
		C79.9,62.3,75.9,68.4,75.9,76.7"/>
	<path class="st6" d="M120.5,97.7l-14.2-42.3h11l5.4,17.9c1.5,5,2.9,9.8,4,15.1h0.2c1.1-5.1,2.5-10.1,4-14.9l5.7-18.1h10.7l-15,42.3
		H120.5z"/>
	<path class="st7" d="M120.5,97.7l-14.2-42.3h11l5.4,17.9c1.5,5,2.9,9.8,4,15.1h0.2c1.1-5.1,2.5-10.1,4-14.9l5.7-18.1h10.7l-15,42.3
		H120.5z"/>
	<g>
		<path class="st8" d="M15.5,115.9v14H14v-7.4H8.6v2.1v0.3c0,0.1,0,0.2-0.1,0.2l-0.2,0.2l-0.4,0.1c-0.2,0-0.4-0.1-0.7-0.3l-1-1.1
			c-0.4-0.4-0.7-0.8-0.9-1.2c-0.1-0.3-0.2-0.5-0.3-0.8l0.1-0.4l0.3-0.3l0.2-0.1l0.3-0.1h1.2v-5.2H3.4v-1.2h14.3v1.2H15.5z M14,115.9
			H8.6v5.2H14V115.9z"/>
		<path class="st8" d="M13.4,114.7l-6.1-6.3l1-1.1l6,7.4H13.4z"/>
		<path class="st8" d="M25.7,115.9v3.8c0,0.9-0.3,1.6-1,2.1c-0.2,0.1-0.3,0.2-0.5,0.3c-0.1,0-0.3,0.1-0.6,0.3
			c-0.5,0.2-0.9,0.2-1.2,0.2H22l-0.5-0.1l2.1,3l0.8,1l1.1,1.2l0.4,0.5l0.7,0.6l-1.1,1c-0.4-0.2-0.9-0.7-1.7-1.6
			c-1-1.2-2-2.5-2.8-3.8l-0.9-1.4l-1.2-1.9l-0.3-0.5l-0.6-1.1l1.2-0.9l1.2,2.1c0.3,0.5,0.8,0.7,1.7,0.7c0.7,0,1.3-0.2,1.5-0.5
			c0.1-0.2,0.3-0.4,0.4-0.6l0.1-0.8v-3.7h-8.1v-1.2h12v1.2H25.7z"/>
		<path class="st8" d="M31.4,115.9v14h-1.5v-14h-2.6v-1.2h2.2c0.1-0.1,0-0.5-0.4-1.1c-0.6-0.8-1.2-1.7-1.9-2.5
			c-0.9-1-1.7-1.6-2.5-1.7c-0.9,0-1.5,0.5-1.9,1.6l-0.1,0.9l0.1,0.8l0.3,0.9l0.4,0.7l0.2,0.3l-1.7,0l-0.3-0.5l-0.3-0.6l-0.2-0.6
			l-0.1-0.7c0-0.2,0-0.5,0-0.8c0-0.2,0.1-0.4,0.2-0.7c0.4-1.1,1-1.8,1.8-2.2c0.5-0.2,0.9-0.3,1.4-0.3c0.7,0,1.4,0.3,2.1,0.8
			c0.9,0.6,1.7,1.4,2.3,2.4l0.9,1.3l1,1.9h2.8v1.2H31.4z"/>
		<path class="st8" d="M59.2,115.9v14h-1.5v-7.6h-4.2l-1-1.2h5.2v-5.1h-5.5v4.9c-0.1,0.3-0.2,0.6-0.3,0.9c-0.1,0.2-0.3,0.5-0.6,0.8
			c-0.3,0.2-0.6,0.3-1,0.4c-0.1,0-0.1,0-0.2,0.1l-0.2,0h-0.2l-0.4,0c-0.2,0-0.4-0.1-0.4-0.1l1.8,2.8l0.8,1l1.4,1.6l0.6,0.6l-1.2,1
			c-0.4-0.1-0.9-0.6-1.5-1.5l-3.6-5.2l-0.8-1.4l-0.5-0.9l-0.5-0.9l1.2-0.8l0.9,1.6c0.3,0.7,0.9,1,1.8,1l0.6-0.1
			c0.2-0.1,0.3-0.2,0.4-0.3l0.2-0.4v-0.6v-0.4v-4h-6.9v-1.2h17.9v1.2H59.2z"/>
		<path class="st8" d="M70,115.9v3.8c0,0.9-0.3,1.6-1,2.1c-0.2,0.1-0.3,0.2-0.5,0.3c-0.1,0-0.3,0.1-0.6,0.3
			c-0.5,0.2-0.9,0.2-1.2,0.2h-0.6l-0.5-0.1l2.1,3l0.8,1l1.1,1.2l0.5,0.5l0.7,0.6l-1.1,1c-0.4-0.2-0.9-0.7-1.7-1.6
			c-1-1.2-2-2.5-2.8-3.8l-0.9-1.4l-1.2-1.9l-0.3-0.5l-0.6-1.1l1.2-0.9l1.2,2.1c0.3,0.5,0.8,0.7,1.7,0.7c0.7,0,1.3-0.2,1.5-0.5
			c0.1-0.2,0.3-0.4,0.4-0.6l0.1-0.8v-3.7h-8.1v-1.2h12v1.2H70z"/>
		<path class="st8" d="M82,115.9v4.4l0.6-0.5l0.3-0.3l0.7-0.4c0.2-0.1,0.4-0.2,0.7-0.3l0.3-0.1l0.3,0c1.2,0,2.2,0.4,2.9,1.1
			c0.7,0.7,1.1,1.6,1.1,2.7c0,1.1-0.5,2.3-1.5,3.6l-0.6,0.8l-0.9,1l-1.3-1c0.2,0,0.3-0.1,0.5-0.3l0.9-1.1c0.9-1.1,1.3-2.1,1.3-3.1
			c0-0.8-0.2-1.4-0.5-1.7c-0.2-0.2-0.4-0.4-0.8-0.6c-0.3-0.1-0.6-0.2-1-0.2c-0.8,0-1.6,0.4-2.2,1.3c-0.6,0.7-0.9,1.5-0.9,2.3v6.3
			h-1.5v-4.4c-0.7,0.7-1.6,1.1-2.7,1.1c-1.9,0-3.2-0.8-3.9-2.5c-0.2-0.5-0.3-1-0.3-1.6c0-0.6,0.1-1.2,0.3-1.7c0.4-0.9,1.1-1.6,2.2-2
			c0.5-0.2,1-0.3,1.6-0.3l0.8,0.1l0.8,0.2v1.2l-0.3-0.1l-0.1-0.1l-0.2-0.1c-0.1,0-0.2,0-0.2-0.1H78h-0.2c-0.4,0-0.8,0.1-1.1,0.2
			c-0.6,0.2-1,0.8-1.4,1.6l-0.2,0.7v0.5c0,1.3,0.5,2.2,1.5,2.6c0.3,0.1,0.7,0.2,1,0.2c0.6,0,1.2-0.2,1.8-0.7c0.6-0.5,0.9-1,1-1.5
			v-7.3h-9v-1.2h19v1.2H82z"/>
		<path class="st8" d="M93.9,115.9v14h-1.5v-14h-2.8v-1.2h7.2v1.2H93.9z"/>
		<path class="st8" d="M104.9,115.9v3.8c0,0.9-0.3,1.6-1,2.1c-0.2,0.1-0.3,0.2-0.5,0.3c-0.1,0-0.3,0.1-0.6,0.3
			c-0.5,0.2-0.9,0.2-1.2,0.2h-0.6l-0.5-0.1l2.1,3l0.8,1l1.1,1.2l0.4,0.5l0.7,0.6l-1.1,1c-0.4-0.2-0.9-0.7-1.7-1.6
			c-1-1.2-2-2.5-2.8-3.8l-0.9-1.4l-1.2-1.9l-0.3-0.5l-0.6-1.1l1.2-0.9l1.2,2.1c0.3,0.5,0.8,0.7,1.7,0.7c0.7,0,1.3-0.2,1.5-0.5
			c0.1-0.2,0.3-0.4,0.4-0.6l0.1-0.8v-3.7h-8.1v-1.2h12v1.2H104.9z"/>
	</g>
	<g>
		<g>
			<path class="st8" d="M15.5,115.9v14H14v-7.4H8.6v2.1v0.3c0,0.1,0,0.2-0.1,0.2l-0.2,0.2l-0.4,0.1c-0.2,0-0.4-0.1-0.7-0.3l-1-1.1
				c-0.4-0.4-0.7-0.8-0.9-1.2c-0.1-0.3-0.2-0.5-0.3-0.8l0.1-0.4l0.3-0.3l0.2-0.1l0.3-0.1h1.2v-5.2H3.4v-1.2h14.3v1.2H15.5z
				 M14,115.9H8.6v5.2H14V115.9z"/>
			<path class="st9" d="M16.1,130.5h-2.7V123H9.2l0,1.9c0,0.2-0.1,0.4-0.3,0.5l-0.4,0.3l-0.6,0.1c-0.3,0-0.7-0.1-1.1-0.5l-0.1-0.1
				l-1-1.1c-0.4-0.4-0.7-0.8-1-1.2l0-0.1c-0.2-0.3-0.3-0.6-0.3-0.9l0-0.1l0.2-0.7l0.5-0.5l0.7-0.2h0.8v-4.1H2.8v-2.4h15.5v2.4h-2.2
				V130.5L16.1,130.5z M14.6,129.3h0.4v-14h2.2v-0.1H4v0.1h3.7v6.4H5.9l-0.2,0.1l-0.1,0.1l0,0.1c0,0.1,0.1,0.3,0.2,0.5
				c0.2,0.4,0.5,0.7,0.8,1l1,1c0.2,0.1,0.3,0.2,0.3,0.2l0.1,0v-2.8h6.6V129.3L14.6,129.3z M14.6,121.7H8v-6.4h6.6V121.7L14.6,121.7z
				 M9.2,120.5h4.2v-4.1H9.2V120.5L9.2,120.5z"/>
		</g>
		<g>
			<path class="st8" d="M13.4,114.7l-6.1-6.3l1-1.1l6,7.4H13.4z"/>
			<path class="st9" d="M15.6,115.2h-2.4l-6.6-6.9l1.9-2L15.6,115.2L15.6,115.2z M8.2,108.3l2.4,2.5l-2.2-2.7L8.2,108.3L8.2,108.3z"
				/>
		</g>
		<g>
			<path class="st8" d="M25.7,115.9v3.8c0,0.9-0.3,1.6-1,2.1c-0.2,0.1-0.3,0.2-0.5,0.3c-0.1,0-0.3,0.1-0.6,0.3
				c-0.5,0.2-0.9,0.2-1.2,0.2H22l-0.5-0.1l2.1,3l0.8,1l1.1,1.2l0.4,0.5l0.7,0.6l-1.1,1c-0.4-0.2-0.9-0.7-1.7-1.6
				c-1-1.2-2-2.5-2.8-3.8l-0.9-1.4l-1.2-1.9l-0.3-0.5l-0.6-1.1l1.2-0.9l1.2,2.1c0.3,0.5,0.8,0.7,1.7,0.7c0.7,0,1.3-0.2,1.5-0.5
				c0.1-0.2,0.3-0.4,0.4-0.6l0.1-0.8v-3.7h-8.1v-1.2h12v1.2H25.7z"/>
			<path class="st9" d="M25.6,130.6l-0.3-0.1c-0.5-0.2-1.1-0.7-1.9-1.8c-1-1.2-2-2.5-2.9-3.9l-0.9-1.4l-1.2-2l-0.3-0.6l-0.9-1.5
				l2.2-1.6l1.5,2.6c0.2,0.3,0.6,0.5,1.2,0.5c0.7,0,1-0.2,1.1-0.3c0.1-0.1,0.2-0.2,0.3-0.4l0.1-0.7v-3.1h-8.1v-2.4h13.2v2.4h-2.4
				v3.2c0,1-0.4,1.9-1.2,2.6c-0.2,0.2-0.4,0.3-0.6,0.4c0,0-0.2,0.1-0.6,0.3c-0.5,0.2-0.9,0.3-1.3,0.3l1.4,2l0.8,1l1,1.1l0.5,0.6
				l1.1,1L25.6,130.6L25.6,130.6z M18.8,119.8l0.4,0.6l0.3,0.6l1.2,1.9l0.9,1.3c0.8,1.3,1.8,2.5,2.8,3.8c0.6,0.7,0.9,1,1.2,1.2
				l0.3-0.3l-0.2-0.2l-0.5-0.6L24,127l-0.9-1.1l-3.1-4.4l0.3,0.1c-0.2-0.1-0.3-0.3-0.4-0.5l-0.9-1.5L18.8,119.8L18.8,119.8z
				 M16.7,115.3h8.1l0,4.4l-0.2,0.9c-0.1,0.3-0.3,0.6-0.5,0.8c-0.2,0.2-0.5,0.4-0.9,0.5c0.1,0,0.2-0.1,0.3-0.1
				c0.2-0.1,0.4-0.2,0.5-0.2c0.1-0.1,0.3-0.2,0.4-0.3c0.5-0.4,0.8-1,0.8-1.7v-4.4h2.4v-0.1L16.7,115.3L16.7,115.3L16.7,115.3z"/>
		</g>
		<g>
			<path class="st8" d="M31.4,115.9v14h-1.5v-14h-2.6v-1.2h2.2c0.1-0.1,0-0.5-0.4-1.1c-0.6-0.8-1.2-1.7-1.9-2.5
				c-0.9-1-1.7-1.6-2.5-1.7c-0.9,0-1.5,0.5-1.9,1.6l-0.1,0.9l0.1,0.8l0.3,0.9l0.4,0.7l0.2,0.3l-1.7,0l-0.3-0.5l-0.3-0.6l-0.2-0.6
				l-0.1-0.7c0-0.2,0-0.5,0-0.8c0-0.2,0.1-0.4,0.2-0.7c0.4-1.1,1-1.8,1.8-2.2c0.5-0.2,0.9-0.3,1.4-0.3c0.7,0,1.4,0.3,2.1,0.8
				c0.9,0.6,1.7,1.4,2.3,2.4l0.9,1.3l1,1.9h2.8v1.2H31.4z"/>
			<path class="st9" d="M32,130.5h-2.7v-14h-2.6v-2.4h2c0,0-0.1-0.1-0.1-0.2c-0.5-0.8-1.2-1.6-1.9-2.4c-0.8-0.9-1.4-1.4-2-1.5
				c-0.4,0-0.9,0.2-1.3,1.1l-0.1,0.8l0.1,0.6l0.3,0.8l0.3,0.7l0.9,1.2l-3.2-0.1l-0.5-0.8l-0.3-0.7l-0.2-0.8l-0.1-0.7
				c0-0.3,0-0.6,0-0.9c0-0.2,0.1-0.5,0.3-0.8c0.4-1.2,1.2-2,2.1-2.5c1.3-0.6,2.7-0.5,4.2,0.6c1,0.7,1.8,1.5,2.5,2.5l0.9,1.3l0.9,1.6
				h3v2.4H32V130.5L32,130.5z M30.4,129.3h0.4v-14h2.5v-0.1h-2.6L30,114c0.2,0.4,0.2,0.8-0.1,1.1l-0.2,0.1h-1.8v0.1h2.6V129.3
				L30.4,129.3z M22.3,114.1l0.4,0l-0.1-0.2l-0.4-1l-0.1-0.8l0.2-1.1c0.3-1.1,0.9-1.6,1.5-1.8c-0.1,0-0.2,0.1-0.3,0.1
				c-0.7,0.3-1.2,0.9-1.5,1.9l0,0.1c-0.1,0.2-0.2,0.3-0.2,0.4c0,0.3-0.1,0.5,0,0.6l0.1,0.6l0.2,0.5L22.3,114.1L22.3,114.1z
				 M26.4,109.5c0.4,0.3,0.8,0.7,1.2,1.2c0.7,0.9,1.4,1.7,1.9,2.6c0,0,0,0,0,0l-0.1-0.2l-0.8-1.3C28.1,110.9,27.3,110.2,26.4,109.5
				C26.4,109.6,26.4,109.6,26.4,109.5L26.4,109.5z"/>
		</g>
		<g>
			<path class="st8" d="M59.2,115.9v14h-1.5v-7.6h-4.2l-1-1.2h5.2v-5.1h-5.5v4.9c-0.1,0.3-0.2,0.6-0.3,0.9c-0.1,0.2-0.3,0.5-0.6,0.8
				c-0.3,0.2-0.6,0.3-1,0.4c-0.1,0-0.1,0-0.2,0.1l-0.2,0h-0.2l-0.4,0c-0.2,0-0.4-0.1-0.4-0.1l1.8,2.8l0.8,1l1.4,1.6l0.6,0.6l-1.2,1
				c-0.4-0.1-0.9-0.6-1.5-1.5l-3.6-5.2l-0.8-1.4l-0.5-0.9l-0.5-0.9l1.2-0.8l0.9,1.6c0.3,0.7,0.9,1,1.8,1l0.6-0.1
				c0.2-0.1,0.3-0.2,0.4-0.3l0.2-0.4v-0.6v-0.4v-4h-6.9v-1.2h17.9v1.2H59.2z"/>
			<path class="st9" d="M52.5,130.6l-0.3-0.1c-0.5-0.2-1-0.7-1.7-1.7l-3.6-5.2l-0.8-1.4l-1.3-2.4l2.2-1.5l1.2,2.2
				c0.1,0.4,0.4,0.7,1.2,0.7l0.5-0.1c0,0,0.1,0,0.1,0l0.1-0.3v-4.4h-6.9v-2.4h19.1v2.4h-2.4v14h-2.7v-7.6h-3.9l-0.8-0.9
				c-0.1,0.3-0.4,0.7-0.8,1.1l-0.1,0c-0.3,0.2-0.7,0.3-1.2,0.4c0,0-0.1,0-0.2,0.1l-0.2,0l1.2,1.8l0.8,1l1.4,1.6l1.1,1L52.5,130.6
				L52.5,130.6z M58.3,129.3h0.4v-14H61v-0.1H44.3v0.1h6.9v5.1h0.4v-5.1h6.7v6.3h-4.6l0.1,0.1h4.5V129.3L58.3,129.3z M46.2,120.1
				l0.8,1.4l0.8,1.3l3.5,5.2c0.4,0.6,0.7,0.9,0.9,1.1l0.4-0.3l-0.2-0.2l-1.5-1.6l-0.8-1.1l-3-4.6l0.1,0c-0.1-0.2-0.2-0.3-0.3-0.5
				l-0.5-1L46.2,120.1L46.2,120.1z M49.4,122.4l0.3,0l0.3,0c0,0,0.1,0,0.1,0c0.4-0.1,0.6-0.2,0.8-0.3c0.3-0.3,0.4-0.4,0.4-0.5
				c0.1-0.3,0.1-0.5,0.2-0.7l-0.3-0.4v0.7l-0.3,0.6c-0.2,0.2-0.4,0.4-0.7,0.5l-0.1,0L49.4,122.4L49.4,122.4z M52.7,120.4h4.4v-3.9
				h-4.4V120.4L52.7,120.4z"/>
		</g>
		<g>
			<path class="st8" d="M70,115.9v3.8c0,0.9-0.3,1.6-1,2.1c-0.2,0.1-0.3,0.2-0.5,0.3c-0.1,0-0.3,0.1-0.6,0.3
				c-0.5,0.2-0.9,0.2-1.2,0.2h-0.6l-0.5-0.1l2.1,3l0.8,1l1.1,1.2l0.5,0.5l0.7,0.6l-1.1,1c-0.4-0.2-0.9-0.7-1.7-1.6
				c-1-1.2-2-2.5-2.8-3.8l-0.9-1.4l-1.2-1.9l-0.3-0.5l-0.6-1.1l1.2-0.9l1.2,2.1c0.3,0.5,0.8,0.7,1.7,0.7c0.7,0,1.3-0.2,1.5-0.5
				c0.1-0.2,0.3-0.4,0.4-0.6l0.1-0.8v-3.7h-8.1v-1.2h12v1.2H70z"/>
			<path class="st9" d="M69.9,130.6l-0.3-0.1c-0.3-0.1-0.8-0.4-1.9-1.8c-1-1.3-2-2.6-2.9-3.9l-0.9-1.4l-1.2-2l-0.3-0.6l-0.9-1.5
				l2.2-1.6l1.5,2.6c0.2,0.3,0.6,0.5,1.2,0.5c0.7,0,1-0.2,1.1-0.3c0.1-0.1,0.2-0.2,0.3-0.4l0.1-0.7v-3.1h-8.1v-2.4h13.2v2.4h-2.4
				v3.2c0,1-0.4,1.9-1.2,2.6c-0.2,0.2-0.4,0.3-0.6,0.4c-0.1,0-0.2,0.1-0.6,0.3l-0.1,0c-0.5,0.2-0.9,0.2-1.2,0.2l1.4,2l0.8,1l1,1.1
				l0.5,0.6l1.1,1L69.9,130.6L69.9,130.6z M63,119.8l0.4,0.6l0.3,0.6l1.2,1.9l0.9,1.3c0.8,1.3,1.8,2.5,2.8,3.8
				c0.6,0.7,0.9,1,1.2,1.2l0.3-0.3l-0.2-0.2l-0.5-0.6l-1.1-1.1l-0.9-1.1l-3.1-4.4l0.3,0.1c-0.2-0.1-0.3-0.3-0.4-0.5l-0.9-1.5
				L63,119.8L63,119.8z M60.9,115.3h8.1l0,4.4l-0.2,0.9c-0.1,0.3-0.3,0.6-0.5,0.8c-0.2,0.2-0.5,0.4-0.9,0.5c0.1,0,0.2,0,0.3-0.1
				c0.3-0.1,0.4-0.2,0.5-0.2c0.1-0.1,0.3-0.1,0.4-0.3c0.5-0.4,0.8-1,0.8-1.7v-4.4h2.4v-0.1L60.9,115.3L60.9,115.3L60.9,115.3z"/>
		</g>
		<g>
			<path class="st8" d="M82,115.9v4.4l0.6-0.5l0.3-0.3l0.7-0.4c0.2-0.1,0.4-0.2,0.7-0.3l0.3-0.1l0.3,0c1.2,0,2.2,0.4,2.9,1.1
				c0.7,0.7,1.1,1.6,1.1,2.7c0,1.1-0.5,2.3-1.5,3.6l-0.6,0.8l-0.9,1l-1.3-1c0.2,0,0.3-0.1,0.5-0.3l0.9-1.1c0.9-1.1,1.3-2.1,1.3-3.1
				c0-0.8-0.2-1.4-0.5-1.7c-0.2-0.2-0.4-0.4-0.8-0.6c-0.3-0.1-0.6-0.2-1-0.2c-0.8,0-1.6,0.4-2.2,1.3c-0.6,0.7-0.9,1.5-0.9,2.3v6.3
				h-1.5v-4.4c-0.7,0.7-1.6,1.1-2.7,1.1c-1.9,0-3.2-0.8-3.9-2.5c-0.2-0.5-0.3-1-0.3-1.6c0-0.6,0.1-1.2,0.3-1.7
				c0.4-0.9,1.1-1.6,2.2-2c0.5-0.2,1-0.3,1.6-0.3l0.8,0.1l0.8,0.2v1.2l-0.3-0.1l-0.1-0.1l-0.2-0.1c-0.1,0-0.2,0-0.2-0.1H78h-0.2
				c-0.4,0-0.8,0.1-1.1,0.2c-0.6,0.2-1,0.8-1.4,1.6l-0.2,0.7v0.5c0,1.3,0.5,2.2,1.5,2.6c0.3,0.1,0.7,0.2,1,0.2
				c0.6,0,1.2-0.2,1.8-0.7c0.6-0.5,0.9-1,1-1.5v-7.3h-9v-1.2h19v1.2H82z"/>
			<path class="st9" d="M82.6,130.5h-2.7v-3.8c-0.6,0.3-1.3,0.5-2.1,0.5c-2.1,0-3.6-0.9-4.4-2.8c-0.3-0.5-0.4-1.2-0.4-1.9
				c0-0.7,0.1-1.4,0.4-1.9c0.5-1.1,1.3-1.9,2.5-2.3c0.5-0.2,1.1-0.3,1.8-0.3l0.1,0l0.9,0.1l1.2,0.4v2.5l-1.4-0.6c-0.1,0-0.1,0-0.2,0
				h-0.3c-0.3,0-0.6,0.1-0.8,0.2l-0.1,0c-0.4,0.2-0.7,0.6-1,1.3l-0.1,0.5v0.4c0,1.4,0.6,1.9,1.1,2.1c0.7,0.3,1.5,0.2,2.2-0.4
				c0.4-0.4,0.7-0.8,0.8-1.2v-6.7h-9v-2.4H91v2.4h-8.5v2.5l0.7-0.4c0.2-0.1,0.5-0.2,0.8-0.3l0.4-0.1l0.4,0c0,0,0,0,0,0
				c1.4,0,2.5,0.4,3.4,1.3c0.8,0.9,1.3,1.9,1.3,3.1c0,1.2-0.6,2.6-1.6,4l-0.6,0.8l-1.3,1.4l-2.7-2l1.2-0.3c0,0,0.1,0,0.2-0.1
				l0.9-1.1c0.8-1,1.2-1.9,1.2-2.7c0-0.6-0.1-1.1-0.4-1.3c-0.1-0.1-0.3-0.3-0.6-0.4c-0.2-0.1-0.4-0.1-0.7-0.1
				c-0.6,0-1.2,0.3-1.8,1.1c-0.5,0.6-0.7,1.3-0.7,1.9V130.5L82.6,130.5z M81,129.3h0.4v-5.7c0-0.9,0.3-1.8,1-2.6
				c0.8-1,1.7-1.5,2.7-1.5c0.4,0,0.9,0.1,1.2,0.2l0.1,0c0.4,0.2,0.7,0.4,0.9,0.7c0.5,0.5,0.7,1.2,0.7,2.1c0,1.1-0.5,2.2-1.5,3.4
				l-0.9,1.1l0.2,0.2l0.5-0.6l0.6-0.8c0.9-1.2,1.4-2.3,1.4-3.2c0-0.9-0.3-1.6-0.9-2.3c-0.6-0.6-1.4-0.9-2.5-0.9l-0.6,0.1
				c-0.2,0-0.3,0.1-0.5,0.2l-0.6,0.3l-1.8,1.6v-6.3h8.5v-0.1H72.1v0.1h9l0,8c-0.1,0.7-0.5,1.3-1.2,1.9c-0.4,0.3-0.8,0.6-1.3,0.7
				c0.6-0.1,1.1-0.4,1.5-0.8l1-1.1V129.3L81,129.3z M77.5,119.1c-0.5,0-0.9,0.1-1.3,0.3c-0.9,0.4-1.5,0.9-1.9,1.7
				c-0.2,0.4-0.3,0.9-0.3,1.4c0,0.5,0.1,1,0.3,1.4c0.5,1.1,1.3,1.8,2.4,2c-0.1,0-0.2-0.1-0.3-0.1c-0.8-0.4-1.8-1.2-1.8-3.1l0-0.6
				l0.2-0.7c0.4-1,1-1.7,1.7-1.9c0.3-0.2,0.7-0.3,1.2-0.3L77.5,119.1L77.5,119.1z"/>
		</g>
		<g>
			<path class="st8" d="M93.9,115.9v14h-1.5v-14h-2.8v-1.2h7.2v1.2H93.9z"/>
			<path class="st9" d="M94.5,130.5h-2.7v-14H89v-2.4h8.4v2.4h-2.9V130.5L94.5,130.5z M93,129.3h0.4v-14h2.9v-0.1h-6.1v0.1H93V129.3
				L93,129.3z"/>
		</g>
		<g>
			<path class="st8" d="M104.9,115.9v3.8c0,0.9-0.3,1.6-1,2.1c-0.2,0.1-0.3,0.2-0.5,0.3c-0.1,0-0.3,0.1-0.6,0.3
				c-0.5,0.2-0.9,0.2-1.2,0.2h-0.6l-0.5-0.1l2.1,3l0.8,1l1.1,1.2l0.4,0.5l0.7,0.6l-1.1,1c-0.4-0.2-0.9-0.7-1.7-1.6
				c-1-1.2-2-2.5-2.8-3.8l-0.9-1.4l-1.2-1.9l-0.3-0.5l-0.6-1.1l1.2-0.9l1.2,2.1c0.3,0.5,0.8,0.7,1.7,0.7c0.7,0,1.3-0.2,1.5-0.5
				c0.1-0.2,0.3-0.4,0.4-0.6l0.1-0.8v-3.7h-8.1v-1.2h12v1.2H104.9z"/>
			<path class="st9" d="M104.8,130.6l-0.3-0.1c-0.5-0.2-1.1-0.7-1.9-1.8c-1-1.2-2-2.5-2.9-3.9l-0.9-1.4l-1.2-2l-0.3-0.6l-0.9-1.5
				l2.2-1.6l1.5,2.6c0.2,0.3,0.6,0.5,1.2,0.5c0.5,0,0.9-0.1,1.1-0.3c0.1-0.1,0.2-0.2,0.3-0.4l0.1-0.7v-3.1h-8.1v-2.4h13.2v2.4h-2.4
				v3.2c0,1-0.4,1.9-1.2,2.6c-0.2,0.2-0.4,0.3-0.6,0.4c0,0-0.2,0.1-0.6,0.3l-0.1,0c-0.5,0.2-0.9,0.2-1.2,0.2l1.4,2l0.8,1l1,1.1
				l0.5,0.6l1.1,1L104.8,130.6L104.8,130.6z M98,119.8l0.6,1.2l1.2,1.9l0.9,1.3c0.8,1.3,1.8,2.5,2.8,3.8c0.6,0.7,0.9,1,1.2,1.2
				l0.3-0.3l-0.2-0.2l-0.5-0.6l-1.1-1.1l-0.9-1.1l-3.1-4.4l0.3,0.1c-0.2-0.1-0.3-0.3-0.4-0.5l-0.9-1.5L98,119.8L98,119.8z
				 M95.8,115.3h8.1l0,4.4l-0.2,0.9c-0.1,0.3-0.3,0.6-0.5,0.8c-0.2,0.2-0.5,0.4-0.9,0.5c0.1,0,0.2,0,0.3-0.1
				c0.3-0.1,0.4-0.2,0.5-0.2c0.2-0.1,0.3-0.2,0.4-0.3c0.5-0.4,0.8-1,0.8-1.7v-4.4h2.4v-0.1L95.8,115.3L95.8,115.3L95.8,115.3z"/>
		</g>
	</g>
</g>
</svg>
