<svg width="100" height="79" viewBox="0 0 100 79" fill="none" xmlns="http://www.w3.org/2000/svg">
<g clip-path="url(#clip0_1432_5682)">
<path d="M29.3097 39.07C29.3497 39.13 29.3797 39.18 29.4097 39.25C29.4197 39.25 29.4197 39.28 29.4297 39.29C35.9597 50.37 46.9697 62.02 49.9997 65.13C53.0397 62.01 64.0797 50.33 70.5997 39.22C70.6197 39.18 70.6497 39.13 70.6697 39.09C73.5397 34.19 75.5097 29.4 75.5097 25.52C75.5097 11.45 64.0597 0 49.9897 0C35.9197 0 24.4697 11.45 24.4697 25.52C24.4797 29.4 26.4497 34.17 29.3097 39.07ZM49.9997 12.42C57.2297 12.42 63.1097 18.3 63.1097 25.53C63.1097 32.76 57.2297 38.64 49.9997 38.64C42.7697 38.64 36.8897 32.76 36.8897 25.53C36.8897 18.3 42.7697 12.42 49.9997 12.42Z" fill="url(#paint0_linear_1432_5682)"/>
<path d="M100 78.3616H0L20.27 40.8516H24.57C24.66 41.0016 24.75 41.1616 24.84 41.3216L25.04 41.9316L25.18 42.0716L25.21 42.1516L25.46 42.3916C32.31 53.7916 43.2 65.3216 46.42 68.6216L50 72.3016L53.58 68.6216C56.86 65.2516 68.1 53.3616 74.91 41.7516L75 41.6116L75.03 41.5416C75.17 41.3116 75.3 41.0816 75.43 40.8516H79.74L100 78.3616Z" fill="url(#paint1_linear_1432_5682)"/>
</g>
<defs>
<linearGradient id="paint0_linear_1432_5682" x1="24.4597" y1="-2.41" x2="233.35" y2="232.2" gradientUnits="userSpaceOnUse">
<stop stop-color="#E45B82"/>
<stop offset="1" stop-color="#BB669B"/>
</linearGradient>
<linearGradient id="paint1_linear_1432_5682" x1="2.26" y1="17.3616" x2="211.15" y2="251.962" gradientUnits="userSpaceOnUse">
<stop stop-color="#E45B82"/>
<stop offset="1" stop-color="#BB669B"/>
</linearGradient>
<clipPath id="clip0_1432_5682">
<rect width="100" height="78.36" fill="white"/>
</clipPath>
</defs>
</svg>
