<svg width="137" height="69" viewBox="0 0 137 69" fill="none" xmlns="http://www.w3.org/2000/svg">
<path d="M127.822 34.4028C127.072 35.5421 126.796 36.915 126.562 38.3373C126.279 40.0781 125.982 41.7482 125.366 43.3828C124.63 45.343 123.385 47.5296 121.227 49.2421C118.983 43.1635 115.714 37.5802 111.631 32.6974C114.207 31.6713 116.733 31.6855 118.814 32.0251C120.54 32.3082 122.132 32.8885 123.781 33.5183C125.133 34.0349 126.456 34.4807 127.822 34.4028ZM102.75 9.33098C102.665 10.6897 103.118 12.02 103.627 13.3716C104.25 15.0204 104.83 16.6126 105.121 18.3393C105.46 20.4198 105.482 22.9461 104.448 25.529C99.5585 21.4529 93.9681 18.1907 87.8824 15.9545C89.5949 13.775 91.7957 12.5295 93.7629 11.7865C95.3976 11.1709 97.0676 10.8736 98.8084 10.5906C100.238 10.3641 101.611 10.0882 102.743 9.33806L102.75 9.33098ZM123.873 59.0926C126.598 59.4959 128.77 60.7697 130.391 62.093C131.742 63.204 132.832 64.499 133.95 65.8718C134.863 66.9969 135.783 68.0443 137.007 68.6528H124.701C124.701 65.3906 124.411 62.1991 123.88 59.0926H123.873ZM34.25 9.33098C35.3893 10.0811 36.7621 10.3571 38.1845 10.5906C39.9253 10.8736 41.5953 11.1709 43.23 11.7865C45.2043 12.5295 47.398 13.7821 49.1105 15.9545C43.0248 18.1907 37.4344 21.4529 32.5446 25.529C31.5114 22.9531 31.5256 20.4198 31.8723 18.3393C32.1554 16.6126 32.7356 15.0204 33.3654 13.3716C33.882 12.02 34.3278 10.6967 34.25 9.33098ZM9.17815 34.4028C10.5368 34.4878 11.8672 34.0349 13.2188 33.5183C14.8676 32.8955 16.4598 32.3153 18.1865 32.0251C20.2669 31.6855 22.7932 31.6642 25.3691 32.6974C21.2859 37.5802 18.0237 43.1635 15.7734 49.2421C13.6151 47.5296 12.3696 45.343 11.6337 43.3828C11.018 41.7482 10.7208 40.0781 10.4378 38.3373C10.2113 36.9079 9.93533 35.5351 9.17815 34.4028ZM0 68.6528C1.22423 68.0443 2.14416 66.9969 3.05702 65.8718C4.16803 64.506 5.26488 63.204 6.61648 62.1C8.23698 60.7697 10.4024 59.4959 13.1268 59.0996C12.589 62.2062 12.3059 65.3977 12.3059 68.6599H0V68.6528ZM68.5 0.152832C69.1086 1.37706 70.163 2.297 71.281 3.20986C72.6468 4.32086 73.9489 5.41771 75.0528 6.76931C76.3902 8.39689 77.6711 10.5835 78.0674 13.3363C74.9537 12.8055 71.7622 12.5225 68.5 12.5225C65.2378 12.5225 62.0392 12.8055 58.9326 13.3363C59.3289 10.5835 60.6098 8.40397 61.9472 6.76931C63.0582 5.41771 64.3532 4.32794 65.719 3.20986C66.8441 2.297 67.8914 1.37706 68.5 0.152832ZM57.0715 68.667L61.3032 68.6528C61.8552 65.0792 60.7725 62.3336 57.1565 62.9846C54.1136 63.5366 50.8443 66.5653 48.8629 68.6528L54.4391 68.6316C55.0618 68.2212 56.279 67.7541 56.7743 68.1009C56.9583 68.2282 57.0574 68.4122 57.0715 68.667ZM76.0859 68.6528H81.3579C81.6056 62.4256 80.6078 55.9931 77.7065 50.4239C75.074 45.3572 70.7149 41.918 65.0821 41.083C56.8522 39.8658 48.5515 43.3545 41.5317 48.3364C33.8891 53.764 27.5769 61.1306 22.0644 68.6458H29.0347C35.3044 59.7436 49.7333 46.2417 60.3479 46.1568C63.7305 46.1285 67.1696 46.9211 69.7101 49.1926C71.5499 50.8343 73.7861 54.0258 73.68 56.6229C73.6163 58.1585 72.2505 58.6326 70.9414 58.1514C69.9224 57.7834 69.2076 56.8564 68.5 55.8798C66.1931 52.7096 62.5912 51.1599 58.6354 51.6977C53.9225 52.3416 48.0774 56.0001 44.3127 59.3332C41.0646 62.2062 38.0784 65.3481 35.269 68.6528H42.763C45.5086 65.3411 48.41 62.5105 52.1322 60.1894C53.3139 59.4534 54.7646 58.675 56.2931 58.1514C60.1427 56.8281 63.9781 57.1607 65.6765 61.9585C66.3488 63.8408 66.4408 65.4967 66.2497 68.5255V68.6458H71.3447L71.3589 68.4901C71.3589 66.8271 71.3235 65.709 71.4792 64.0673C71.6066 62.652 72.0453 61.1801 73.3615 61.0032C76.1567 60.4158 76.0223 66.6431 76.0789 68.6458L76.0859 68.6528ZM86.9058 68.6528H92.2273C92.4821 62.8714 91.9867 56.0285 90.1185 50.0489C89.7506 48.8671 89.326 47.7278 88.8519 46.6309C87.7196 44.048 86.1982 41.7057 84.3795 39.5474C82.3628 37.1485 79.9568 34.9902 77.2465 33.2848C76.4468 32.7823 75.6189 32.3224 74.7626 31.8978C73.9135 31.4803 73.036 31.1123 72.1302 30.7868C61.7703 27.107 51.2972 29.7253 42.5082 34.5019C40.7957 35.436 39.1469 36.4479 37.5759 37.5094C36.005 38.5709 34.5118 39.6889 33.1036 40.8282C31.4336 42.1869 29.346 44.0339 27.2797 46.2205C26.8763 46.6522 26.473 47.0909 26.0838 47.5367C25.0365 48.7185 23.4301 50.3815 23.9042 52.101C24.2793 53.4597 26.0413 53.0634 26.6499 52.5893C27.5911 52.0869 28.6242 51.2872 29.5017 50.5371C30.6976 49.5252 31.8299 48.4354 33.0116 47.4093C37.8024 43.2555 42.7913 40.0569 47.7094 37.8915C48.7779 37.4174 49.8536 36.9928 50.9221 36.6178C51.9906 36.2427 53.045 35.9172 54.0994 35.6483C63.2493 33.2706 73.1917 34.8133 79.5605 42.2718C85.6958 49.4615 86.8138 59.0784 86.9058 68.6387V68.6528ZM20.9109 60.5291C21.4841 59.9983 22.0644 59.2978 22.6729 58.5264C23.5221 57.4508 23.607 56.4035 23.2744 55.6534C23.1471 55.3703 22.9631 55.1297 22.7437 54.9458C22.5243 54.7618 22.2554 54.6273 21.9724 54.5636C21.2789 54.4079 20.4509 54.6556 19.7504 55.5048C18.9578 56.4743 17.8609 58.1231 17.6345 59.5879C17.592 59.8639 17.5779 60.1257 17.6062 60.3805C17.6345 60.6211 17.6982 60.8546 17.8114 61.0669C17.9883 61.4136 18.2926 61.5905 18.696 61.6047C18.7809 61.6047 18.8729 61.6047 18.9649 61.5905C19.0569 61.5835 19.163 61.5622 19.2692 61.5339C19.814 61.4066 20.3519 61.0386 20.9038 60.522L20.9109 60.5291ZM100.21 68.6528H100.245H100.266C100.825 68.6811 101.788 68.4264 102.347 67.4852C102.46 67.2942 102.552 67.0819 102.623 66.8413C102.693 66.5936 102.75 66.3105 102.771 65.9921V65.9284C103.196 51.1599 98.6669 38.9247 90.9889 30.6169C89.4958 29.0035 87.8824 27.5387 86.1628 26.2225C84.4432 24.9133 82.6175 23.7599 80.6998 22.7833L80.6715 22.7692C74.2178 19.4715 66.8936 18.2048 59.704 18.8134C58.3028 18.9337 56.9088 19.1248 55.5289 19.3795C54.149 19.6414 52.7761 19.9669 51.4316 20.3632H51.4104C44.0155 22.5569 37.1372 26.8947 31.5326 32.5913C30.4429 33.7023 29.3956 34.8628 28.4119 36.0658C27.9237 36.6602 27.4425 37.2759 26.9825 37.8915C30.9099 34.5019 35.1275 31.5227 39.5432 29.1592C40.5339 28.6285 41.5387 28.126 42.5365 27.6661C43.5414 27.199 44.5533 26.7673 45.5794 26.3711C49.4785 24.8567 53.321 23.8872 57.1635 23.4556C61.006 23.0239 64.8485 23.123 68.7548 23.7457C71.5358 24.1844 74.2461 24.9133 76.6874 25.9323C77.1616 26.1305 77.6286 26.3428 78.0815 26.5621C78.5344 26.7815 78.9731 27.015 79.4119 27.2556H79.419C88.0239 31.9685 93.9964 41.635 96.6289 52.5468C97.1454 54.6769 97.5276 56.8493 97.7823 59.0359C98.0371 61.2226 98.1574 63.4375 98.1432 65.6453V65.7727C98.1857 66.9545 98.589 67.9452 99.2896 68.391C99.417 68.4759 99.5585 68.5396 99.7071 68.5821C99.8557 68.6245 100.018 68.6458 100.188 68.6458L100.21 68.6528ZM84.8324 19.422C105.517 26.2508 120.462 45.7039 120.547 68.6528H110.315C110.994 48.6053 102.24 30.5108 84.8324 19.422Z" fill="url(#paint0_linear_960_3430)"/>
<defs>
<linearGradient id="paint0_linear_960_3430" x1="12.8579" y1="15.2681" x2="243.614" y2="157.391" gradientUnits="userSpaceOnUse">
<stop offset="0.16" stop-color="#E45B82"/>
<stop offset="0.36" stop-color="#E05B84"/>
<stop offset="0.54" stop-color="#D65E8A"/>
<stop offset="0.7" stop-color="#C46195"/>
<stop offset="0.85" stop-color="#AB67A4"/>
<stop offset="0.92" stop-color="#9F6AAC"/>
</linearGradient>
</defs>
</svg>
