<svg width="26" height="26" viewBox="0 0 26 26" fill="none" xmlns="http://www.w3.org/2000/svg">
<g clip-path="url(#clip0_921_803)">
<path d="M19.9189 8.70912C20.3517 8.61637 20.7227 8.24539 20.6918 7.81257C20.6918 7.25609 20.1662 6.85418 19.6407 6.94693L15.6835 7.68891C14.7869 7.84348 13.8904 7.93623 12.9938 7.93623C12.0973 7.93623 11.2007 7.84348 10.3042 7.68891L6.4088 6.97785C5.97598 6.8851 5.51225 7.13242 5.35767 7.53433C5.17218 8.05989 5.51225 8.61637 6.03781 8.74003L10.7679 9.60567L10.8297 12.0171C10.8606 13.5629 10.7061 15.1396 10.3351 16.6544L9.12937 21.3536C9.00571 21.8482 9.22212 22.3738 9.68585 22.5593C10.2732 22.8066 10.8916 22.4666 11.0461 21.8792L12.7465 15.0159C12.8083 14.7686 13.1484 14.7686 13.2102 15.0159L14.9415 21.8792C15.0652 22.3429 15.4671 22.6211 15.8999 22.6211C16.0545 22.6211 16.209 22.5902 16.3636 22.4975C16.7964 22.2811 16.9819 21.7864 16.8583 21.3227L15.6835 16.5926C15.3125 15.0777 15.127 13.5319 15.1888 11.9553L15.2507 9.54384L19.9189 8.70912Z" fill="black"/>
<path d="M12.9938 7.37938C14.1036 7.37938 15.0033 6.47969 15.0033 5.36986C15.0033 4.26004 14.1036 3.36035 12.9938 3.36035C11.8839 3.36035 10.9843 4.26004 10.9843 5.36986C10.9843 6.47969 11.8839 7.37938 12.9938 7.37938Z" fill="black"/>
<path d="M13 25.3815C19.8382 25.3815 25.3817 19.8381 25.3817 12.9999C25.3817 6.16163 19.8382 0.618164 13 0.618164C6.16176 0.618164 0.618286 6.16163 0.618286 12.9999C0.618286 19.8381 6.16176 25.3815 13 25.3815Z" stroke="black" stroke-width="1.23662" stroke-miterlimit="10"/>
</g>
<defs>
<clipPath id="clip0_921_803">
<rect width="26" height="26" fill="white"/>
</clipPath>
</defs>
</svg>
