<svg width="96" height="95" viewBox="0 0 96 95" fill="none" xmlns="http://www.w3.org/2000/svg">
<g clip-path="url(#clip0_996_184)">
<path d="M13.5031 95.0005C11.8979 94.5016 10.1843 94.1979 8.69836 93.4495C3.4706 90.8031 0.607255 86.4756 0.379489 80.6079C0.249338 77.2456 0.249338 73.8617 0.553025 70.5211C1.05194 65.0981 5.66148 59.9354 10.9326 58.5146C12.8958 57.9832 14.8697 58.981 15.5096 60.8248C16.1821 62.7337 15.2602 64.6968 13.3079 65.5103C9.15389 67.2456 7.75476 69.3606 7.75476 73.9051C7.75476 75.8573 7.73307 77.7988 7.76561 79.751C7.77645 80.5211 7.84153 81.302 8.03676 82.0396C8.94782 85.3259 11.5617 87.3758 14.9999 87.5602C15.2493 87.571 15.4988 87.571 15.7374 87.571C37.1257 87.571 58.514 87.571 79.9023 87.571C83.1127 87.571 85.6506 86.3346 87.0606 83.3953C87.5704 82.3215 87.7873 81.0309 87.8524 79.827C87.9717 77.6035 87.8958 75.3801 87.8849 73.1567C87.8741 69.404 86.0736 66.8443 82.4945 65.6187C80.8567 65.0547 79.7613 64.0569 79.566 62.289C79.284 59.7294 81.6702 57.7554 84.219 58.3845C89.8372 59.7727 94.3057 64.7294 95.1192 70.456C95.1517 70.6621 95.2385 70.8573 95.2927 71.0526V81.8118C95.2385 81.9528 95.1517 82.0829 95.13 82.2239C94.284 87.4409 91.4966 91.2478 86.7461 93.5255C85.3036 94.2196 83.6658 94.5124 82.1257 94.9897H13.5031V95.0005Z" fill="#D971C8"/>
<path d="M25.5433 80.1514C23.5043 80.1514 21.834 78.4486 21.8557 76.4096C21.8774 74.3705 23.5802 72.7111 25.6192 72.7436C27.6257 72.7762 29.2526 74.4356 29.2635 76.4421C29.2635 78.4812 27.5824 80.1623 25.5433 80.1514Z" fill="#D971C8"/>
<path d="M44.0997 76.4643C44.0997 78.5034 42.3969 80.1736 40.3578 80.152C38.3188 80.1303 36.6593 78.4274 36.6919 76.3884C36.7244 74.3819 38.3839 72.755 40.3904 72.7441C42.4294 72.7441 44.1105 74.4253 44.0997 76.4643Z" fill="#D971C8"/>
<path d="M55.2957 72.7436C57.3348 72.7762 58.9942 74.479 58.9508 76.518C58.9075 78.5571 57.1938 80.2057 55.1547 80.1514C53.1482 80.0972 51.5322 78.4269 51.543 76.4204C51.5539 74.3814 53.2567 72.7111 55.2957 72.7436Z" fill="#D971C8"/>
<path d="M73.7876 76.4861C73.7659 78.5251 72.063 80.1845 70.024 80.152C67.985 80.1195 66.3364 78.395 66.3797 76.3559C66.4231 74.3494 68.0934 72.7333 70.0999 72.7442C72.139 72.7442 73.8092 74.447 73.7876 76.4861Z" fill="#D971C8"/>
<path d="M74.1303 33.8188C74.0761 28.8731 70.5837 24.5781 65.7681 23.3959C64.651 23.1139 63.4796 23.0488 62.2648 22.8752C62.2648 19.9143 62.3191 16.9533 62.2648 13.9924C62.0588 5.04444 53.664 -1.54992 44.9004 0.326438C37.9481 1.81234 33.3603 7.4631 33.3386 14.5672C33.3386 17.3438 33.3386 20.1204 33.3386 23.0379C32.9156 23.0379 32.6011 23.0379 32.2974 23.0379C26.408 23.1898 21.5598 27.962 21.4948 33.8514C21.408 40.7386 21.408 47.6366 21.4948 54.5347C21.5707 60.3807 26.3863 65.2397 32.2323 65.2939C42.6227 65.3807 53.0132 65.3807 63.3928 65.2939C69.2388 65.2397 74.0436 60.3698 74.1195 54.5238C74.2063 47.6366 74.1954 40.7386 74.1195 33.8405L74.1303 33.8188ZM40.7789 14.2093C40.8549 10.6627 43.3711 7.98371 46.9937 7.50648C50.3559 7.0618 53.6097 9.15507 54.575 12.398C54.6401 12.6041 54.716 12.821 54.716 13.0271C54.716 16.3243 54.716 19.6215 54.716 22.9946H40.8549C40.8223 22.8427 40.7681 22.7017 40.7681 22.5607C40.7681 19.7733 40.7247 16.9967 40.7681 14.2201L40.7789 14.2093Z" fill="#D971C8"/>
</g>
<defs>
<clipPath id="clip0_996_184">
<rect width="95.0217" height="95" fill="white" transform="translate(0.292969)"/>
</clipPath>
</defs>
</svg>
