<svg width="108" height="126" viewBox="0 0 108 126" fill="none" xmlns="http://www.w3.org/2000/svg">
<g clip-path="url(#clip0_991_116)">
<path d="M42.7777 18.6317C37.7032 18.6317 33.6042 22.7417 33.6042 27.8052C33.6042 29.0765 33.8673 30.2931 34.3385 31.4C35.7304 34.6771 38.9965 36.9786 42.7777 36.9786C46.5589 36.9786 49.803 34.6771 51.2059 31.4C51.6662 30.2931 51.9292 29.0875 51.9292 27.8052C51.9292 22.7417 47.8412 18.6317 42.7777 18.6317ZM74.2766 33.4934C73.9149 33.1207 73.3998 32.9015 72.8408 32.9015C71.9311 32.9015 71.1201 33.5263 70.8899 34.414L68.2267 44.6177L58.9217 40.5516C57.4092 39.894 55.7871 39.5542 54.1322 39.5542H34.5687C32.5082 39.5542 30.5025 40.3653 29.0339 41.812L7.5853 62.7893L1.06414 69.179C0.0996604 70.1106 0.0229409 71.634 0.877817 72.6752C1.77653 73.7712 3.3986 73.9356 4.4946 73.0478L17.3397 62.7893L30.6012 52.202C31.0944 51.8075 31.8287 52.1034 31.9164 52.7281L33.2754 62.8003L34.3604 70.7462C34.4591 71.4586 34.4262 72.182 34.2837 72.8834L29.7244 94.2005L23.5759 122.927C23.2799 124.297 24.3321 125.59 25.735 125.59C26.6227 125.59 27.4228 125.064 27.7626 124.242L40.4432 94.1896L44.323 84.9832C44.5642 84.4133 45.3642 84.4133 45.6053 84.9832L49.4961 94.1896L62.1658 124.242C62.5165 125.053 63.3057 125.59 64.2044 125.59C65.5963 125.59 66.6375 124.297 66.3525 122.927L60.204 94.2005L55.6556 72.8834C55.5022 72.182 55.4803 71.4586 55.5789 70.7462L56.653 62.8003L58.286 50.832C58.3518 50.3169 58.8669 50.01 59.3491 50.1744L69.7939 53.6706C72.2928 54.5146 74.8794 52.6514 74.8794 50.01V34.9291C74.8794 34.3702 74.6492 33.866 74.2875 33.4934H74.2766ZM106.466 10.9159C105.173 7.40871 103.211 4.37281 100.942 2.36714C98.5419 0.251869 96.0649 -0.482448 93.9716 0.295708C93.588 0.438187 93.2263 0.613546 92.8975 0.843705C92.7989 0.920425 92.6893 0.997145 92.5906 1.08482L56.8174 28.0244C56.4338 28.3203 56.2036 28.7587 56.2036 29.2409C56.2036 30.0958 56.8941 30.7644 57.7271 30.7644H57.8476L101.907 27.3997C101.994 27.3997 102.082 27.3997 102.181 27.3997C102.52 27.3997 102.849 27.3668 103.178 27.301C103.419 27.2462 103.649 27.1914 103.879 27.1037C105.984 26.3365 107.376 24.1665 107.825 21.01C108.241 18.007 107.77 14.4231 106.466 10.9159ZM106.334 20.8018C105.973 23.3883 104.91 25.1309 103.353 25.7009C103.112 25.7885 102.871 25.8543 102.619 25.8762C101.205 26.0516 99.5502 25.3721 97.8843 23.9034C95.8129 22.0622 93.9935 19.2455 92.7769 15.9575C90.6398 10.1816 91.0124 4.38377 93.4565 2.30138C93.7633 2.02738 94.1031 1.8301 94.4757 1.68762C94.8484 1.54514 95.2429 1.49034 95.6594 1.49034C96.9636 1.49034 98.4323 2.16986 99.9338 3.48505C100.975 4.40569 101.95 5.56744 102.827 6.92647C103.693 8.27455 104.438 9.79798 105.052 11.431C106.269 14.708 106.707 18.0399 106.323 20.8018H106.334Z" fill="#D971C8"/>
</g>
<defs>
<clipPath id="clip0_991_116">
<rect width="107.681" height="125.59" fill="white" transform="translate(0.285156)"/>
</clipPath>
</defs>
</svg>
