<svg width="24" height="21" viewBox="0 0 24 21" fill="none" xmlns="http://www.w3.org/2000/svg">
<path d="M16.069 18.7097L7.60957 12.9499C7.48011 12.8646 7.40234 12.7209 7.40234 12.5672V7.35805C7.40234 7.20441 7.48011 7.06072 7.60957 6.97536L16.069 1.07811C16.3782 0.874196 16.7917 1.09328 16.7917 1.46079V18.327C16.7917 18.6945 16.3777 18.9136 16.069 18.7097Z" stroke="#231F20" stroke-width="1.5" stroke-miterlimit="10"/>
<path d="M4.25 20C4.25 20.4142 4.58579 20.75 5 20.75C5.41421 20.75 5.75 20.4142 5.75 20L4.25 20ZM4.25 13L4.25 20L5.75 20L5.75 13L4.25 13Z" fill="#231F20"/>
<path d="M21.6406 14.7848C22.5046 13.3769 23.0002 11.7214 23.0002 9.94927C23.0002 8.17716 22.5046 6.52122 21.6406 5.11377" stroke="#231F20" stroke-width="1.5" stroke-miterlimit="10" stroke-linecap="round"/>
<path d="M19.3516 12.4958C19.7063 11.7181 19.9021 10.8574 19.9021 9.94883C19.9021 9.04025 19.7058 8.17956 19.3516 7.40186" stroke="#231F20" stroke-width="1.5" stroke-miterlimit="10" stroke-linecap="round"/>
<path d="M3.98751 6.9751H7.04901C7.24391 6.9751 7.40182 7.13301 7.40182 7.32791V12.5973C7.40182 12.7922 7.24391 12.9501 7.04901 12.9501H3.98751C2.33869 12.9501 1 11.6114 1 9.96261C1 8.31379 2.33869 6.9751 3.98751 6.9751Z" stroke="#231F20" stroke-width="1.5" stroke-miterlimit="10"/>
</svg>
