<svg width="84" height="97" viewBox="0 0 84 97" fill="none" xmlns="http://www.w3.org/2000/svg">
<g clip-path="url(#clip0_960_3426)">
<g clip-path="url(#clip1_960_3426)">
<path d="M58.8944 87.7856L31.0661 96.5722C30.1759 96.8497 29.2394 97 28.303 97C26.8347 97 25.3895 96.6416 24.0946 95.9595C21.9326 94.8496 20.314 92.9188 19.5972 90.595L0.752191 30.9383C-0.76235 26.1172 1.90833 20.9839 6.71786 19.4578L17.7474 15.9894V71.6574C17.7243 80.5481 24.9155 87.7625 33.8062 87.7856C33.8177 87.7856 33.8409 87.7856 33.8524 87.7856H58.8944ZM63.9351 14.5789C63.9351 17.7698 66.5249 20.3596 69.7158 20.3596H84.3179C84.1907 19.689 83.867 19.0763 83.3929 18.5907L66.2127 1.07521C65.6 0.462455 64.7676 0.0924911 63.9005 0.0578069L63.9351 14.5789ZM69.7158 27.2964C62.6865 27.2964 56.9983 21.6082 56.9983 14.5789V0H33.8755C28.8232 0 24.7305 4.08117 24.7189 9.13349C24.7189 9.14505 24.7189 9.15661 24.7189 9.16818V71.6574C24.6958 76.7098 28.7654 80.8256 33.8177 80.8487C33.8293 80.8487 33.8409 80.8487 33.8524 80.8487H75.2422C80.2945 80.8487 84.3757 76.756 84.3872 71.7037V27.2733L69.7158 27.2964Z" fill="url(#paint0_linear_960_3426)"/>
</g>
</g>
<defs>
<linearGradient id="paint0_linear_960_3426" x1="2.96042" y1="5.61883" x2="213.771" y2="221.435" gradientUnits="userSpaceOnUse">
<stop offset="0.14" stop-color="#E45B82"/>
<stop offset="0.795" stop-color="#9F6AAC"/>
</linearGradient>
<clipPath id="clip0_960_3426">
<rect width="83.9761" height="96.8999" fill="white" transform="translate(0.0117188)"/>
</clipPath>
<clipPath id="clip1_960_3426">
<rect width="84.0628" height="97" fill="white" transform="translate(0.324219)"/>
</clipPath>
</defs>
</svg>
