<svg width="21" height="19" viewBox="0 0 21 19" fill="none" xmlns="http://www.w3.org/2000/svg">
<g clip-path="url(#clip0_960_3204)">
<path d="M9.31972 18.6558C4.17386 18.6558 0 14.4737 0 9.31972C0 4.16569 4.18203 0 9.33606 0C11.958 0 14.4574 1.11085 16.2299 3.04667C16.3932 3.20187 16.3932 3.46324 16.2299 3.6266C16.0747 3.7818 15.8215 3.78997 15.6663 3.6266C12.4889 0.147024 7.10618 -0.106184 3.6266 3.05484C0.155193 6.21587 -0.106184 11.5986 3.05484 15.0782C6.21587 18.5578 11.5986 18.811 15.0782 15.6499C16.8506 14.0327 17.8635 11.7456 17.8635 9.34422C17.8635 8.44574 17.7246 7.54726 17.4387 6.68962C17.3652 6.46091 17.4959 6.22404 17.7165 6.15053C17.9452 6.07701 18.182 6.2077 18.2555 6.43641C18.5333 7.37573 18.6639 8.34772 18.6476 9.32789C18.6476 14.4737 14.4656 18.6476 9.31972 18.6558Z" fill="white"/>
<path d="M9.31871 13.1014C9.21252 13.1014 9.10634 13.0606 9.03283 12.9871L4.31171 8.2578C4.15651 8.1026 4.15651 7.84123 4.31171 7.68603C4.4669 7.53084 4.72828 7.53084 4.88347 7.68603L9.31871 12.1131L20.2965 0.824891C20.4599 0.669698 20.7131 0.669698 20.8765 0.824891C21.0398 0.980083 21.0398 1.24146 20.8765 1.40482L9.61276 12.9789C9.53925 13.0606 9.43306 13.1014 9.32688 13.1014H9.31871Z" fill="white"/>
</g>
<defs>
<clipPath id="clip0_960_3204">
<rect width="21" height="18.6558" fill="white"/>
</clipPath>
</defs>
</svg>
