<svg width="16" height="16" viewBox="0 0 16 16" fill="none" xmlns="http://www.w3.org/2000/svg">
<path d="M10.0785 7.80514L15.2255 2.65819C15.7342 2.15054 15.7347 1.32648 15.2271 0.817747C14.7194 0.309012 13.8954 0.30847 13.3867 0.816122L8.23971 5.96307L3.09276 0.816122C2.58402 0.307387 1.75943 0.307387 1.25069 0.816122C0.741957 1.32486 0.741957 2.14945 1.25069 2.65819L6.39764 7.80514L1.25069 12.9521C0.741957 13.4608 0.741957 14.2854 1.25069 14.7942C1.75943 15.3029 2.58402 15.3029 3.09276 14.7942L8.23971 9.6472L13.3867 14.7942C13.8954 15.3029 14.72 15.3029 15.2287 14.7942C15.7375 14.2854 15.7375 13.4608 15.2287 12.9521L10.0785 7.80514Z" fill="black"/>
</svg>
