<svg width="93" height="83" viewBox="0 0 93 83" fill="none" xmlns="http://www.w3.org/2000/svg">
<g clip-path="url(#clip0_960_3442)">
<path d="M75.1902 12.6098C75.1902 15.3698 77.4302 17.6098 80.1902 17.6098H92.8202C92.7102 17.0298 92.4301 16.4998 92.0201 16.0798L77.1602 0.929805C76.6302 0.399805 75.9102 0.0798047 75.1602 0.0498047L75.1902 12.6098Z" fill="url(#paint0_linear_960_3442)"/>
<path d="M92.8795 23.59V62.02C92.8695 66.39 89.3295 69.93 84.9695 69.93H77.6895C77.7095 69.66 77.7095 69.38 77.7095 69.1C77.6795 62.49 74.0795 56.55 68.3895 53.44C65.7595 46.14 58.8595 41.21 50.9495 41.21C49.4995 41.21 48.0495 41.38 46.6295 41.72C46.3995 41.77 46.1695 41.83 45.9395 41.9C44.6095 40.08 43.0295 38.49 41.2695 37.16V7.93C41.2695 7.93 41.2695 7.91 41.2695 7.9C41.2695 3.53 44.8295 0 49.1995 0H69.1995V12.61C69.1995 18.69 74.1195 23.61 80.1995 23.61L92.8895 23.59H92.8795Z" fill="url(#paint1_linear_960_3442)"/>
<path d="M64.8699 56.4699C63.0399 48.7699 55.3199 44.0199 47.6199 45.8499C46.4299 46.1399 45.2699 46.5799 44.1899 47.1599C39.5699 37.9199 28.3499 34.1799 19.1099 38.7899C12.7899 41.9499 8.78993 48.4099 8.77993 55.4699V56.3999C1.70993 59.1299 -1.80007 67.0699 0.929926 74.1399C2.97993 79.4199 8.05993 82.8999 13.7199 82.9099H59.8099C67.3799 82.8699 73.4999 76.6999 73.4599 69.1199C73.4299 63.5499 70.0399 58.5499 64.8699 56.4699ZM36.3899 71.0499H29.8199L31.6699 63.3999C30.5099 62.8599 29.7099 61.6999 29.7099 60.3399C29.7099 58.4699 31.2299 56.9499 33.0999 56.9499C34.9699 56.9499 36.4999 58.4699 36.4999 60.3399C36.4999 61.6999 35.6899 62.8699 34.5299 63.4099L36.3899 71.0499Z" fill="url(#paint2_linear_960_3442)"/>
</g>
<defs>
<linearGradient id="paint0_linear_960_3442" x1="72.3658" y1="-3.762" x2="181.654" y2="115.991" gradientUnits="userSpaceOnUse">
<stop offset="0.17" stop-color="#E45B82"/>
<stop offset="0.825" stop-color="#9F6AAC"/>
</linearGradient>
<linearGradient id="paint1_linear_960_3442" x1="33.1016" y1="-15.1799" x2="459.98" y2="328.145" gradientUnits="userSpaceOnUse">
<stop offset="0.17" stop-color="#E45B82"/>
<stop offset="0.825" stop-color="#9F6AAC"/>
</linearGradient>
<linearGradient id="paint2_linear_960_3442" x1="-11.6192" y1="26.8107" x2="237.55" y2="459.454" gradientUnits="userSpaceOnUse">
<stop offset="0.17" stop-color="#E45B82"/>
<stop offset="0.825" stop-color="#9F6AAC"/>
</linearGradient>
<clipPath id="clip0_960_3442">
<rect width="92.88" height="82.91" fill="white"/>
</clipPath>
</defs>
</svg>
