<svg width="20" height="12" viewBox="0 0 20 12" fill="none" xmlns="http://www.w3.org/2000/svg">
<g clip-path="url(#clip0_1043_17502)">
<path d="M10.0008 8.4001C11.4735 8.4001 12.6674 7.32558 12.6674 6.0001C12.6674 4.67461 11.4735 3.6001 10.0008 3.6001C8.52801 3.6001 7.33411 4.67461 7.33411 6.0001C7.33411 7.32558 8.52801 8.4001 10.0008 8.4001Z" fill="black"/>
<path d="M19.786 5.3475C18.6835 3.813 17.2531 2.5095 15.6498 1.57763C13.876 0.545625 11.9177 0 9.98686 0C8.2152 0 6.47311 0.455625 4.80895 1.35413C3.11187 2.27025 1.57437 3.60862 0.238948 5.33175C-0.0693849 5.73 -0.0798016 6.2565 0.212282 6.6645C1.3127 8.21438 2.72895 9.51975 4.30728 10.4389C6.08436 11.475 7.99686 12 9.98686 12C11.9769 12 13.8956 11.4589 15.6619 10.4355C17.2644 9.50663 18.6919 8.19825 19.7902 6.651C20.0719 6.25313 20.0702 5.74388 19.786 5.3475ZM10.001 9.6C7.79186 9.6 6.00103 7.98825 6.00103 6C6.00103 4.01175 7.79186 2.4 10.001 2.4C12.2102 2.4 14.001 4.01175 14.001 6C13.9985 7.98713 12.2089 9.59775 10.001 9.6Z" fill="black"/>
</g>
<defs>
<clipPath id="clip0_1043_17502">
<rect width="20" height="12" fill="white"/>
</clipPath>
</defs>
</svg>
