<svg width="125" height="79" viewBox="0 0 125 79" fill="none" xmlns="http://www.w3.org/2000/svg">
<g clip-path="url(#clip0_1008_388)">
<path d="M70.3907 70.8923V78.8097H0V70.8923C0 68.8847 0.250947 66.9273 0.740295 65.0703C3.32505 55.0826 12.4219 47.6797 23.2126 47.6797H47.1781C57.9688 47.6797 67.0657 55.0826 69.6504 65.0703C70.1398 66.9273 70.3907 68.8847 70.3907 70.8923Z" fill="url(#paint0_linear_1008_388)"/>
<path d="M34.7574 41.1554C46.1221 41.1554 55.335 31.9424 55.335 20.5777C55.335 9.21294 46.1221 0 34.7574 0C23.3926 0 14.1797 9.21294 14.1797 20.5777C14.1797 31.9424 23.3926 41.1554 34.7574 41.1554Z" fill="url(#paint1_linear_1008_388)"/>
<path d="M123.225 0.125H60.902C60.3875 0.125 59.9609 0.539063 59.9609 1.0535V35.2827C59.9609 35.7972 60.3875 36.2238 60.902 36.2238H66.2723C66.7867 36.2238 67.2133 36.6378 67.2133 37.1523V46.6632C67.2133 47.5164 68.2547 47.9305 68.8319 47.2905L78.5436 36.5249C78.7318 36.3367 78.9827 36.2238 79.2462 36.2238H123.225C123.739 36.2238 124.166 35.7972 124.166 35.2827V1.0535C124.166 0.539063 123.739 0.125 123.225 0.125ZM96.0221 26.7505C95.5202 27.2399 94.8426 27.541 94.1023 27.541H70.8019C69.3087 27.541 68.1042 26.3239 68.1042 24.8308C68.1042 24.0779 68.4053 23.4129 68.8947 22.9236C69.384 22.4342 70.049 22.1331 70.8019 22.1331H94.1023C95.5955 22.1331 96.8126 23.3376 96.8126 24.8308C96.8126 25.5836 96.5114 26.2612 96.0221 26.7505ZM114.316 15.0062C113.827 15.4955 113.162 15.7967 112.409 15.7967H70.8019C69.3087 15.7967 68.1042 14.5796 68.1042 13.0864C68.1042 12.3336 68.4053 11.656 68.8947 11.1667C69.384 10.6773 70.049 10.3762 70.8019 10.3762H112.409C113.902 10.3762 115.107 11.5933 115.107 13.0864C115.107 13.8393 114.805 14.5168 114.316 15.0062Z" fill="url(#paint2_linear_1008_388)"/>
</g>
<defs>
<linearGradient id="paint0_linear_1008_388" x1="8.5839" y1="43.3111" x2="34.5752" y2="90.6605" gradientUnits="userSpaceOnUse">
<stop offset="0.255" stop-color="#7E75D0"/>
<stop offset="0.99" stop-color="#8C70C1"/>
</linearGradient>
<linearGradient id="paint1_linear_1008_388" x1="19.1984" y1="-5.77552" x2="58.9957" y2="26.2874" gradientUnits="userSpaceOnUse">
<stop offset="0.255" stop-color="#7E75D0"/>
<stop offset="0.99" stop-color="#8C70C1"/>
</linearGradient>
<linearGradient id="paint2_linear_1008_388" x1="67.7905" y1="-6.53765" x2="114.605" y2="44.4674" gradientUnits="userSpaceOnUse">
<stop offset="0.255" stop-color="#7E75D0"/>
<stop offset="0.99" stop-color="#8C70C1"/>
</linearGradient>
<clipPath id="clip0_1008_388">
<rect width="124.169" height="78.81" fill="white"/>
</clipPath>
</defs>
</svg>
