<svg width="84" height="99" viewBox="0 0 84 99" fill="none" xmlns="http://www.w3.org/2000/svg">
<g clip-path="url(#clip0_960_3422)">
<path d="M41.1972 65.7569H76.3161C77.5667 65.7569 78.713 66.0696 79.7551 66.4864V58.879C79.7551 48.2496 71.1056 39.6001 60.4761 39.6001H39.9467C30.9845 39.6001 23.4814 45.6443 21.293 53.9811C29.4214 54.6064 36.8203 58.9833 41.1972 65.7569Z" fill="url(#paint0_linear_960_3422)"/>
<path d="M50.1589 34.1811C59.5977 34.1811 67.2494 26.5294 67.2494 17.0905C67.2494 7.65169 59.5977 0 50.1589 0C40.7201 0 33.0684 7.65169 33.0684 17.0905C33.0684 26.5294 40.7201 34.1811 50.1589 34.1811Z" fill="url(#paint1_linear_960_3422)"/>
<path d="M83.4018 79.2L77.0449 73.26C76.8365 73.0516 76.5239 72.9474 76.2113 72.9474H39.6334C38.0702 72.9474 36.6113 72.1137 35.8818 70.759C32.6513 65.0274 26.5028 61.1716 19.4165 61.0674C9.41231 60.9632 0.867045 68.9874 0.345992 78.9916C-0.279271 89.9337 8.47441 99 19.3123 99C26.3986 99 32.547 95.1443 35.8818 89.3085C36.6113 87.9537 38.0702 87.2243 39.6334 87.2243H46.8239C47.1365 87.2243 47.4492 87.12 47.6576 86.9116L51.2007 83.3685C51.7218 82.8474 52.4513 82.8474 52.8681 83.3685L56.4113 86.9116C56.6197 87.12 56.9323 87.2243 57.2449 87.2243H60.6839C60.9965 87.2243 61.3092 87.12 61.5176 86.9116L65.0607 83.3685C65.5818 82.8474 66.3113 82.8474 66.7281 83.3685L70.2713 86.9116C70.4797 87.12 70.7923 87.2243 71.1049 87.2243H76.0028C76.3155 87.2243 76.6281 87.12 76.8365 86.9116L83.1934 80.9716C83.9228 80.4506 83.9228 79.6169 83.4018 79.2ZM13.5807 85.7653C10.4544 85.7653 7.84915 83.16 7.84915 80.0337C7.84915 76.9074 10.4544 74.3022 13.5807 74.3022C16.707 74.3022 19.3123 76.9074 19.3123 80.0337C19.3123 83.16 16.707 85.7653 13.5807 85.7653Z" fill="url(#paint2_linear_960_3422)"/>
</g>
<defs>
<linearGradient id="paint0_linear_960_3422" x1="12.0424" y1="33.7638" x2="132.443" y2="319.009" gradientUnits="userSpaceOnUse">
<stop offset="0.17" stop-color="#E45B82"/>
<stop offset="0.825" stop-color="#9F6AAC"/>
</linearGradient>
<linearGradient id="paint1_linear_960_3422" x1="27.6598" y1="-7.41978" x2="240.499" y2="224.48" gradientUnits="userSpaceOnUse">
<stop offset="0.17" stop-color="#E45B82"/>
<stop offset="0.825" stop-color="#9F6AAC"/>
</linearGradient>
<linearGradient id="paint2_linear_960_3422" x1="-12.8908" y1="52.832" x2="155.593" y2="456.695" gradientUnits="userSpaceOnUse">
<stop offset="0.17" stop-color="#E45B82"/>
<stop offset="0.825" stop-color="#9F6AAC"/>
</linearGradient>
<clipPath id="clip0_960_3422">
<rect width="83.4518" height="99" fill="white" transform="translate(0.314453)"/>
</clipPath>
</defs>
</svg>
