<svg width="84" height="99" viewBox="0 0 84 99" fill="none" xmlns="http://www.w3.org/2000/svg">
<g clip-path="url(#clip0_991_134)">
<path d="M41.1933 65.7564H76.3122C77.5628 65.7564 78.7091 66.0691 79.7512 66.4859V58.8786C79.7512 48.2491 71.1017 39.5996 60.4722 39.5996H39.9427C30.9806 39.5996 23.4775 45.6438 21.2891 53.9807C29.4175 54.6059 36.8164 58.9828 41.1933 65.7564Z" fill="url(#paint0_linear_991_134)"/>
<path d="M50.1569 34.1811C59.5958 34.1811 67.2475 26.5294 67.2475 17.0905C67.2475 7.65169 59.5958 0 50.1569 0C40.7181 0 33.0664 7.65169 33.0664 17.0905C33.0664 26.5294 40.7181 34.1811 50.1569 34.1811Z" fill="url(#paint1_linear_991_134)"/>
<path d="M83.3998 79.2L77.043 73.26C76.8346 73.0516 76.5219 72.9474 76.2093 72.9474H39.6314C38.0682 72.9474 36.6093 72.1137 35.8798 70.759C32.6493 65.0274 26.5009 61.1716 19.4146 61.0674C9.41036 60.9632 0.865091 68.9874 0.344039 78.9916C-0.281224 89.9337 8.47246 99 19.3104 99C26.3967 99 32.5451 95.1443 35.8798 89.3085C36.6093 87.9537 38.0682 87.2243 39.6314 87.2243H46.8219C47.1346 87.2243 47.4472 87.12 47.6556 86.9116L51.1988 83.3685C51.7198 82.8474 52.4493 82.8474 52.8661 83.3685L56.4093 86.9116C56.6177 87.12 56.9304 87.2243 57.243 87.2243H60.6819C60.9946 87.2243 61.3072 87.12 61.5156 86.9116L65.0588 83.3685C65.5798 82.8474 66.3093 82.8474 66.7261 83.3685L70.2693 86.9116C70.4777 87.12 70.7904 87.2243 71.103 87.2243H76.0009C76.3135 87.2243 76.6262 87.12 76.8346 86.9116L83.1914 80.9716C83.9209 80.4506 83.9209 79.6169 83.3998 79.2ZM13.5788 85.7653C10.4525 85.7653 7.8472 83.16 7.8472 80.0337C7.8472 76.9074 10.4525 74.3022 13.5788 74.3022C16.7051 74.3022 19.3104 76.9074 19.3104 80.0337C19.3104 83.16 16.7051 85.7653 13.5788 85.7653Z" fill="url(#paint2_linear_991_134)"/>
</g>
<defs>
<linearGradient id="paint0_linear_991_134" x1="12.0385" y1="33.7633" x2="132.439" y2="319.008" gradientUnits="userSpaceOnUse">
<stop offset="0.17" stop-color="#D870C7"/>
<stop offset="0.825" stop-color="#9F6AAC"/>
</linearGradient>
<linearGradient id="paint1_linear_991_134" x1="27.6579" y1="-7.41978" x2="240.497" y2="224.48" gradientUnits="userSpaceOnUse">
<stop offset="0.17" stop-color="#D870C7"/>
<stop offset="0.825" stop-color="#9F6AAC"/>
</linearGradient>
<linearGradient id="paint2_linear_991_134" x1="-12.8928" y1="52.832" x2="155.591" y2="456.695" gradientUnits="userSpaceOnUse">
<stop offset="0.17" stop-color="#D870C7"/>
<stop offset="0.825" stop-color="#9F6AAC"/>
</linearGradient>
<clipPath id="clip0_991_134">
<rect width="83.4518" height="99" fill="white" transform="translate(0.3125)"/>
</clipPath>
</defs>
</svg>
