<svg width="87" height="99" viewBox="0 0 87 99" fill="none" xmlns="http://www.w3.org/2000/svg">
<g clip-path="url(#clip0_1008_384)">
<path d="M36.81 58.8467L42.4778 65.4437L37.6152 97.7163H5.11034C3.25204 97.7163 1.54859 98.1809 0 98.8003V87.4956C0 85.0178 0.309718 82.6175 0.913668 80.3101C4.10376 67.9834 15.331 58.8467 28.6489 58.8467H36.81Z" fill="url(#paint0_linear_1008_384)"/>
<path d="M86.8764 87.4956V98.8003C85.3278 98.1809 83.6243 97.7163 81.766 97.7163H49.2766L44.4141 65.4437L50.0819 58.8467H58.2275C71.5453 58.8467 82.7726 67.9834 85.9627 80.3101C86.5667 82.6175 86.8764 85.0178 86.8764 87.4956Z" fill="url(#paint1_linear_1008_384)"/>
<path d="M43.4359 50.7937C57.4622 50.7937 68.8328 39.4232 68.8328 25.3969C68.8328 11.3706 57.4622 0 43.4359 0C29.4096 0 18.0391 11.3706 18.0391 25.3969C18.0391 39.4232 29.4096 50.7937 43.4359 50.7937Z" fill="url(#paint2_linear_1008_384)"/>
</g>
<defs>
<linearGradient id="paint0_linear_1008_384" x1="5.18002" y1="53.2398" x2="44.2515" y2="86.7068" gradientUnits="userSpaceOnUse">
<stop offset="0.255" stop-color="#7E75D0"/>
<stop offset="0.99" stop-color="#8C70C1"/>
</linearGradient>
<linearGradient id="paint1_linear_1008_384" x1="49.5922" y1="53.2398" x2="88.6615" y2="86.6927" gradientUnits="userSpaceOnUse">
<stop offset="0.255" stop-color="#7E75D0"/>
<stop offset="0.99" stop-color="#8C70C1"/>
</linearGradient>
<linearGradient id="paint2_linear_1008_384" x1="24.2332" y1="-7.12811" x2="73.3508" y2="32.4438" gradientUnits="userSpaceOnUse">
<stop offset="0.255" stop-color="#7E75D0"/>
<stop offset="0.99" stop-color="#8C70C1"/>
</linearGradient>
<clipPath id="clip0_1008_384">
<rect width="86.8759" height="98.8" fill="white"/>
</clipPath>
</defs>
</svg>
