<svg width="22" height="24" viewBox="0 0 22 24" fill="none" xmlns="http://www.w3.org/2000/svg">
<g clip-path="url(#clip0_1028_43943)">
<path d="M10.9994 12.0847C14.3365 12.0847 17.0418 9.37947 17.0418 6.04236C17.0418 2.70526 14.3365 0 10.9994 0C7.66229 0 4.95703 2.70526 4.95703 6.04236C4.95703 9.37947 7.66229 12.0847 10.9994 12.0847Z" fill="#7E75D0"/>
<path d="M10.9995 10.2255C13.3097 10.2255 15.1825 8.35267 15.1825 6.04243C15.1825 3.73219 13.3097 1.85938 10.9995 1.85938C8.68922 1.85938 6.81641 3.73219 6.81641 6.04243C6.81641 8.35267 8.68922 10.2255 10.9995 10.2255Z" fill="white"/>
<path d="M19.8306 23.7034V20.9152C19.8306 18.7793 18.0935 17.0422 15.9576 17.0422H13.8264L11 19.4149L8.16903 17.0422H6.04236C3.90653 17.0422 2.16944 18.7793 2.16944 20.9152V23.7034H0V20.9152C0 17.5831 2.71028 14.8728 6.04236 14.8728H15.9576C19.2897 14.8728 22 17.5831 22 20.9152V23.7034H19.8306Z" fill="#7E75D0"/>
<path d="M11 18.04L12.375 23.54H9.625L11 18.04Z" fill="#7E75D0"/>
</g>
<defs>
<clipPath id="clip0_1028_43943">
<rect width="22" height="23.7035" fill="white"/>
</clipPath>
</defs>
</svg>
