<?xml version="1.0" encoding="utf-8"?>
<!-- Generator: Adobe Illustrator 28.1.0, SVG Export Plug-In . SVG Version: 6.00 Build 0)  -->
<svg version="1.1" id="Layer_1" xmlns="http://www.w3.org/2000/svg" xmlns:xlink="http://www.w3.org/1999/xlink" x="0px" y="0px"
	 viewBox="0 0 28 32" style="enable-background:new 0 0 28 32;" xml:space="preserve">
<style type="text/css">
	.st0{clip-path:url(#SVGID_00000067230851921179438810000010966260414601238703_);}
	.st1{fill:#FFFFFF;}
</style>
<g>
	<defs>
		<rect id="SVGID_1_" y="0.8" width="28" height="30.2"/>
	</defs>
	<clipPath id="SVGID_00000169543427641144202520000013884154105249412518_">
		<use xlink:href="#SVGID_1_"  style="overflow:visible;"/>
	</clipPath>
	<g style="clip-path:url(#SVGID_00000169543427641144202520000013884154105249412518_);">
		<path class="st1" d="M14,0.8c-4.2,0-7.7,3.4-7.7,7.7c0,4.2,3.4,7.7,7.7,7.7s7.7-3.4,7.7-7.7C21.7,4.3,18.2,0.8,14,0.8z M14,13.9
			c-2.9,0-5.3-2.4-5.3-5.3s2.4-5.3,5.3-5.3s5.3,2.4,5.3,5.3S16.9,13.9,14,13.9z"/>
		<path class="st1" d="M25.2,31v-3.5c0-2.7-2.2-4.9-4.9-4.9h-2.7l-3.6,3l-3.6-3H7.7c-2.7,0-4.9,2.2-4.9,4.9V31H0v-3.5
			c0-4.2,3.4-7.7,7.7-7.7h12.6c4.2,0,7.7,3.4,7.7,7.7V31H25.2z"/>
		<path class="st1" d="M14,23.8l1.8,7h-3.5L14,23.8z"/>
	</g>
</g>
</svg>
