<svg width="36" height="25" viewBox="0 0 36 25" fill="none" xmlns="http://www.w3.org/2000/svg">
<g clip-path="url(#clip0_2187_10937)">
<path d="M20.9455 24.8181V21.8727C20.9455 21.1887 20.7605 20.5211 20.412 19.9418C20.0225 19.2938 19.4547 18.7816 18.774 18.4625C18.2749 18.2269 17.7398 18.1091 17.1835 18.1091H6.70909C4.63418 18.1091 2.94545 19.7978 2.94545 21.8727V24.8181H0V21.8727C0 18.1729 3.00927 15.1636 6.70909 15.1636H17.1818C18.8902 15.1636 20.52 15.81 21.7702 16.9832C22.4804 17.6476 23.0465 18.4756 23.4098 19.3772C23.7289 20.1692 23.8909 21.0087 23.8909 21.8727V24.8181H20.9455Z" fill="white"/>
<path d="M11.9453 13.0364C15.4699 13.0364 18.3271 10.1791 18.3271 6.65455C18.3271 3.12997 15.4699 0.272728 11.9453 0.272728C8.42071 0.272728 5.56348 3.12997 5.56348 6.65455C5.56348 10.1791 8.42071 13.0364 11.9453 13.0364Z" fill="white"/>
<path d="M11.9444 10.7454C14.2038 10.7454 16.0353 8.91379 16.0353 6.65444C16.0353 4.3951 14.2038 2.56353 11.9444 2.56353C9.68508 2.56353 7.85352 4.3951 7.85352 6.65444C7.85352 8.91379 9.68508 10.7454 11.9444 10.7454Z" fill="#36AAC9"/>
<path d="M33.0541 24.8182V22.4455C33.0541 21.0022 31.8792 19.8273 30.4359 19.8273H24.0754L23.9985 19.608C23.9641 19.5099 23.9265 19.4133 23.8872 19.3168C23.609 18.6295 23.2228 17.9913 22.7385 17.4219L22.2803 16.8819H30.4359C33.5041 16.8819 35.9995 19.3773 35.9995 22.4455V24.8182H33.0541Z" fill="white"/>
<path d="M26.3462 15.409C29.2382 15.409 31.5826 13.0646 31.5826 10.1726C31.5826 7.28067 29.2382 4.93627 26.3462 4.93627C23.4543 4.93627 21.1099 7.28067 21.1099 10.1726C21.1099 13.0646 23.4543 15.409 26.3462 15.409Z" fill="white"/>
<path d="M26.3458 13.1183C27.9726 13.1183 29.2913 11.7996 29.2913 10.1728C29.2913 8.54611 27.9726 7.22739 26.3458 7.22739C24.7191 7.22739 23.4004 8.54611 23.4004 10.1728C23.4004 11.7996 24.7191 13.1183 26.3458 13.1183Z" fill="#36AAC9"/>
</g>
<defs>
<clipPath id="clip0_2187_10937">
<rect width="36" height="24.5455" fill="white" transform="translate(0 0.272705)"/>
</clipPath>
</defs>
</svg>
