<svg width="28" height="20" viewBox="0 0 28 20" fill="none" xmlns="http://www.w3.org/2000/svg">
<g clip-path="url(#clip0_1028_43927)">
<path d="M16.2909 19.0909V16.8C16.2909 16.268 16.1471 15.7487 15.876 15.2982C15.5731 14.7942 15.1315 14.3958 14.602 14.1476C14.2138 13.9643 13.7976 13.8727 13.3649 13.8727H5.21818C3.60436 13.8727 2.29091 15.1862 2.29091 16.8V19.0909H0V16.8C0 13.9223 2.34055 11.5818 5.21818 11.5818H13.3636C14.6924 11.5818 15.96 12.0845 16.9324 12.9971C17.4847 13.5138 17.9251 14.1578 18.2076 14.8591C18.4558 15.4751 18.5818 16.128 18.5818 16.8V19.0909H16.2909Z" fill="#36AAC9"/>
<path d="M9.29176 9.92727C12.0331 9.92727 14.2554 7.70498 14.2554 4.96364C14.2554 2.2223 12.0331 0 9.29176 0C6.55042 0 4.32812 2.2223 4.32812 4.96364C4.32812 7.70498 6.55042 9.92727 9.29176 9.92727Z" fill="#36AAC9"/>
<path d="M9.29119 8.14537C11.0485 8.14537 12.473 6.72083 12.473 4.96356C12.473 3.20629 11.0485 1.78174 9.29119 1.78174C7.53392 1.78174 6.10938 3.20629 6.10938 4.96356C6.10938 6.72083 7.53392 8.14537 9.29119 8.14537Z" fill="white"/>
<path d="M25.7078 19.0909V17.2455C25.7078 16.1229 24.7939 15.2091 23.6714 15.2091H18.7243L18.6645 15.0386C18.6378 14.9622 18.6085 14.8871 18.5779 14.812C18.3616 14.2775 18.0612 13.7811 17.6845 13.3382L17.3281 12.9182H23.6714C26.0578 12.9182 27.9987 14.8591 27.9987 17.2455V19.0909H25.7078Z" fill="#36AAC9"/>
<path d="M20.4926 11.7727C22.742 11.7727 24.5654 9.94923 24.5654 7.69992C24.5654 5.45062 22.742 3.6272 20.4926 3.6272C18.2433 3.6272 16.4199 5.45062 16.4199 7.69992C16.4199 9.94923 18.2433 11.7727 20.4926 11.7727Z" fill="#36AAC9"/>
<path d="M20.4901 9.991C21.7554 9.991 22.781 8.96532 22.781 7.70009C22.781 6.43485 21.7554 5.40918 20.4901 5.40918C19.2249 5.40918 18.1992 6.43485 18.1992 7.70009C18.1992 8.96532 19.2249 9.991 20.4901 9.991Z" fill="white"/>
</g>
<defs>
<clipPath id="clip0_1028_43927">
<rect width="28" height="19.0909" fill="white"/>
</clipPath>
</defs>
</svg>
