<svg width="31" height="31" viewBox="0 0 31 31" fill="none" xmlns="http://www.w3.org/2000/svg">
<g opacity="0.5" clip-path="url(#clip0_853_8669)">
<path d="M15.5 27.125C9.10625 27.125 3.875 21.8937 3.875 15.5C3.875 9.10625 9.10625 3.875 15.5 3.875C18.6969 3.875 21.6031 5.23125 23.6384 7.3625L17.4375 13.5625H31V0L26.4469 4.55312C23.6384 1.74375 19.7634 0 15.5 0C6.975 0 0 6.975 0 15.5C0 24.025 6.87724 31 15.5 31C22.637 31 28.5596 26.2329 30.4187 19.7273H26.3192C24.6688 24.0919 20.4063 27.125 15.5 27.125Z" fill="black"/>
</g>
<defs>
<clipPath id="clip0_853_8669">
<rect width="31" height="31" fill="white"/>
</clipPath>
</defs>
</svg>
