<svg width="78" height="98" viewBox="0 0 78 98" fill="none" xmlns="http://www.w3.org/2000/svg">
<g clip-path="url(#clip0_991_180)">
<path d="M57.9871 14.98C57.9871 18.1023 60.5211 20.6363 63.6433 20.6363H77.9311C77.8066 19.9802 77.4899 19.3806 77.0261 18.9055L60.2156 1.76699C59.6161 1.16742 58.8016 0.805422 57.9531 0.771484L57.9871 14.98Z" fill="#D971C8"/>
<path d="M78.0012 27.4011V70.8753C77.9899 75.8188 73.9966 79.8235 69.053 79.8235H54.0073C54.4259 77.8098 54.6521 75.717 54.6521 73.579C54.6521 56.8703 41.111 43.3292 24.4024 43.3292C22.7734 43.3292 21.1783 43.4536 19.6172 43.7138V9.65175C19.6172 4.70817 23.6331 0.714844 28.5767 0.714844H51.2018V14.98C51.2018 21.858 56.7676 27.4238 63.6456 27.4238L78.0012 27.4011Z" fill="#D971C8"/>
<path d="M24.4012 49.1777C10.9279 49.1777 0 60.1057 0 73.5789C0 87.0521 10.9279 97.9801 24.4012 97.9801C37.8744 97.9801 48.8023 87.0521 48.8023 73.5789C48.8023 60.1057 37.8857 49.1777 24.4012 49.1777ZM37.0825 68.3864L21.3694 84.0996C21.0413 84.4276 20.6341 84.6426 20.2042 84.7896L12.5796 87.0182C12.4664 87.0521 12.3194 87.0521 12.2175 87.0521C11.8895 87.0521 11.5614 86.9503 11.3012 86.6901C10.9732 86.3281 10.8261 85.853 10.9732 85.4118L13.2017 77.7872C13.3488 77.3573 13.5637 76.95 13.8918 76.622L29.6049 60.9088C30.1253 60.3998 30.8154 60.1057 31.5394 60.1057C32.2634 60.1057 32.9648 60.3998 33.4738 60.9088L37.0825 64.5175C37.5916 65.0266 37.8857 65.7167 37.8857 66.452C37.8857 67.1873 37.5916 67.8661 37.0825 68.3864Z" fill="#D971C8"/>
</g>
<defs>
<clipPath id="clip0_991_180">
<rect width="78" height="97.2653" fill="white" transform="translate(0 0.714844)"/>
</clipPath>
</defs>
</svg>
