<svg width="157" height="72" viewBox="0 0 157 72" fill="none" xmlns="http://www.w3.org/2000/svg">
<g clip-path="url(#clip0_1014_201)">
<path fill-rule="evenodd" clip-rule="evenodd" d="M38.8515 38.8216L18.7535 31.2463V38.7382C20.3336 39.183 21.4841 40.6425 21.4841 42.3521C21.4841 43.7977 20.6663 45.0486 19.4743 45.688C20.6108 51.5398 23.7295 68.0247 22.884 69.4008C21.8583 71.0687 17.714 72 17.714 72C17.714 72 13.5835 71.0687 12.5578 69.4008C11.7123 68.0247 14.8309 51.5398 15.9675 45.688C14.7755 45.0625 13.9716 43.7977 13.9716 42.3521C13.9716 40.6286 15.122 39.183 16.7021 38.7382V30.4819L0 24.1853L78.4931 0L156.986 24.1853L118.135 38.8216C118.758 40.2811 118.703 41.2819 118.703 41.2819V65.5923C118.703 65.5923 97.2882 59.671 78.4931 68.678C59.698 59.671 38.2832 65.5923 38.2832 65.5923V41.2819C38.2832 41.2819 38.2139 40.2811 38.8515 38.8216Z" fill="url(#paint0_linear_1014_201)"/>
</g>
<defs>
<linearGradient id="paint0_linear_1014_201" x1="-87.0418" y1="11.0589" x2="-75.5649" y2="101.498" gradientUnits="userSpaceOnUse">
<stop offset="0.335" stop-color="#36AAC9"/>
<stop offset="1" stop-color="#6C89BA"/>
</linearGradient>
<clipPath id="clip0_1014_201">
<rect width="157" height="72" fill="white"/>
</clipPath>
</defs>
</svg>
