<svg width="23" height="23" viewBox="0 0 23 23" fill="none" xmlns="http://www.w3.org/2000/svg">
<g clip-path="url(#clip0_1114_44457)">
<path d="M22.2269 20.2981L17.0835 15.1547C18.2775 13.5015 19.0123 11.4808 19.0123 9.46021C19.0123 4.22495 14.7873 0 9.55206 0C4.3168 0 0 4.22495 0 9.46021C0 14.6955 4.22495 18.9204 9.46021 18.9204C11.4808 18.9204 13.5015 18.2775 15.1547 16.9916L20.2981 22.1351C20.5737 22.3188 20.9411 22.5024 21.2166 22.5024C21.584 22.5024 21.8595 22.3188 22.1351 22.1351C22.4106 21.8595 22.5024 21.584 22.5024 21.2166C22.5943 20.8492 22.4106 20.4818 22.2269 20.2981ZM15.7976 12.0319C15.3384 13.2259 14.4199 14.3281 13.3178 15.0629C12.2156 15.7976 10.9298 16.165 9.55206 16.165C7.71512 16.165 6.06188 15.4302 4.77603 14.1444C3.49018 12.9504 2.7554 11.2971 2.7554 9.46021C2.7554 8.08251 3.12279 6.79666 3.85756 5.6945C4.59234 4.59234 5.6945 3.67387 6.8885 3.21463C8.17436 2.66355 9.46021 2.57171 10.8379 2.84725C12.1238 3.12279 13.3178 3.76571 14.3281 4.68418C15.2466 5.60265 15.8895 6.79666 16.165 8.17436C16.4406 9.46021 16.2569 10.8379 15.7976 12.0319Z" fill="#103049"/>
</g>
<defs>
<clipPath id="clip0_1114_44457">
<rect width="22.53" height="22.5024" fill="white"/>
</clipPath>
</defs>
</svg>
