<svg width="108" height="126" viewBox="0 0 108 126" fill="none" xmlns="http://www.w3.org/2000/svg">
<g clip-path="url(#clip0_960_3404)">
<path d="M42.7757 18.6317C37.7013 18.6317 33.6023 22.7417 33.6023 27.8052C33.6023 29.0765 33.8653 30.2931 34.3366 31.4C35.7285 34.6771 38.9946 36.9786 42.7757 36.9786C46.5569 36.9786 49.8011 34.6771 51.2039 31.4C51.6642 30.2931 51.9273 29.0875 51.9273 27.8052C51.9273 22.7417 47.8392 18.6317 42.7757 18.6317ZM74.2746 33.4934C73.9129 33.1207 73.3978 32.9015 72.8389 32.9015C71.9292 32.9015 71.1181 33.5263 70.888 34.414L68.2247 44.6177L58.9197 40.5516C57.4073 39.894 55.7852 39.5542 54.1302 39.5542H34.5667C32.5063 39.5542 30.5006 40.3653 29.032 41.812L7.58335 62.7893L1.06218 69.179C0.0977073 70.1106 0.0209877 71.634 0.875863 72.6752C1.77458 73.7712 3.39665 73.9356 4.49264 73.0478L17.3377 62.7893L30.5992 52.202C31.0924 51.8074 31.8267 52.1034 31.9144 52.7281L33.2735 62.8003L34.3585 70.7462C34.4571 71.4586 34.4243 72.182 34.2818 72.8834L29.7224 94.2005L23.5739 122.927C23.278 124.297 24.3301 125.59 25.733 125.59C26.6208 125.59 27.4208 125.064 27.7606 124.242L40.4413 94.1896L44.3211 84.9832C44.5622 84.4133 45.3623 84.4133 45.6034 84.9832L49.4942 94.1896L62.1639 124.242C62.5146 125.053 63.3037 125.59 64.2024 125.59C65.5943 125.59 66.6355 124.297 66.3506 122.927L60.202 94.2005L55.6537 72.8834C55.5002 72.182 55.4783 71.4586 55.577 70.7462L56.651 62.8003L58.2841 50.832C58.3498 50.3169 58.8649 50.01 59.3472 50.1744L69.792 53.6706C72.2909 54.5146 74.8774 52.6514 74.8774 50.01V34.9291C74.8774 34.3702 74.6472 33.866 74.2856 33.4934H74.2746ZM106.464 10.9159C105.171 7.40871 103.209 4.37281 100.94 2.36714C98.5399 0.251869 96.063 -0.482448 93.9696 0.295708C93.586 0.438187 93.2244 0.613546 92.8956 0.843705C92.7969 0.920425 92.6873 0.997145 92.5887 1.08482L56.8154 28.0244C56.4318 28.3203 56.2017 28.7587 56.2017 29.2409C56.2017 30.0958 56.8921 30.7644 57.7251 30.7644H57.8457L101.905 27.3997C101.992 27.3997 102.08 27.3997 102.179 27.3997C102.518 27.3997 102.847 27.3668 103.176 27.301C103.417 27.2462 103.647 27.1914 103.877 27.1037C105.982 26.3365 107.374 24.1665 107.823 21.01C108.239 18.007 107.768 14.4231 106.464 10.9159ZM106.332 20.8018C105.971 23.3883 104.908 25.1309 103.351 25.7009C103.11 25.7885 102.869 25.8543 102.617 25.8762C101.203 26.0516 99.5482 25.3721 97.8823 23.9034C95.8109 22.0622 93.9915 19.2455 92.775 15.9575C90.6378 10.1816 91.0104 4.38377 93.4545 2.30138C93.7614 2.02738 94.1012 1.8301 94.4738 1.68762C94.8464 1.54514 95.241 1.49034 95.6575 1.49034C96.9617 1.49034 98.4303 2.16986 99.9318 3.48505C100.973 4.40569 101.948 5.56744 102.825 6.92648C103.691 8.27455 104.436 9.79798 105.05 11.431C106.267 14.708 106.705 18.0399 106.321 20.8018H106.332Z" fill="url(#paint0_linear_960_3404)"/>
</g>
<defs>
<linearGradient id="paint0_linear_960_3404" x1="8.89854" y1="-1.24964" x2="124.077" y2="137.799" gradientUnits="userSpaceOnUse">
<stop offset="0.55341" stop-color="#E45B82"/>
<stop offset="0.960262" stop-color="#9F6AAC"/>
</linearGradient>
<clipPath id="clip0_960_3404">
<rect width="107.681" height="125.59" fill="white" transform="translate(0.283203)"/>
</clipPath>
</defs>
</svg>
