<svg width="44" height="28" viewBox="0 0 44 28" fill="none" xmlns="http://www.w3.org/2000/svg">
<g clip-path="url(#clip0_2187_10919)">
<path d="M44 10.3671L21.9987 0.741211L0 10.3671L3.44444 12.3038V17.0979C2.62911 17.5445 2.07469 18.41 2.07469 19.4034V24.8874C2.07469 26.3349 3.25127 27.5115 4.69879 27.5115C6.1463 27.5115 7.32288 26.3349 7.32288 24.8874V19.4034C7.32288 18.41 6.76846 17.5445 5.95313 17.0979V13.7162L10.6921 16.3829L8.06295 21.3978L8.89583 22.04C12.8144 25.068 17.3476 26.6686 22.0013 26.6686C26.6549 26.6686 31.1856 25.068 35.1067 22.04L35.9396 21.3978L33.3104 16.3804L44.0025 10.3646L44 10.3671ZM4.69879 25.0028C4.63858 25.0028 4.58339 24.9476 4.58339 24.8874V19.6091H4.81669V24.8874C4.81669 24.9476 4.7615 25.0028 4.70129 25.0028H4.69879ZM21.9987 3.48071L38.383 10.648L21.9987 19.8625L5.61697 10.648L21.9987 3.48071ZM32.7259 20.6753C29.4546 22.9582 25.7668 24.1599 22.0013 24.1599C18.2357 24.1599 14.5479 22.9582 11.2741 20.6753L12.8796 17.6122L21.9987 22.7425L31.1179 17.6122L32.7234 20.6753H32.7259Z" fill="white"/>
</g>
<defs>
<clipPath id="clip0_2187_10919">
<rect width="44" height="26.7703" fill="white" transform="translate(0 0.741211)"/>
</clipPath>
</defs>
</svg>
