<svg width="30" height="21" viewBox="0 0 30 21" fill="none" xmlns="http://www.w3.org/2000/svg">
<path d="M15 1.46802L3 6.1932L15 12.268L27 6.1932L15 1.46802Z" stroke="#231F20" stroke-width="1.8" stroke-miterlimit="10"/>
<path d="M4.74951 7.81561V14.6013" stroke="#231F20" stroke-width="1.8" stroke-miterlimit="10"/>
<path d="M5.62212 15.4777C5.62212 14.9937 5.23058 14.6014 4.74758 14.6014C4.26459 14.6014 3.87305 14.9937 3.87305 15.4777V18.9758C3.87305 19.4598 4.26459 19.8521 4.74758 19.8521C5.23058 19.8521 5.62212 19.4598 5.62212 18.9758V15.4777Z" stroke="#231F20" stroke-width="1.8" stroke-miterlimit="10"/>
<path d="M21 9.86798L23.1298 13.5621C20.8373 15.3349 18.1406 16.3504 15.2504 16.3504C12.3602 16.3504 9.66697 15.3349 7.37109 13.5621L9.12017 10.2236" stroke="#231F20" stroke-width="1.8" stroke-miterlimit="10"/>
</svg>
