<svg width="30" height="19" viewBox="0 0 30 19" fill="none" xmlns="http://www.w3.org/2000/svg">
<path d="M30 6.56309L14.9991 0L0 6.56309L2.34848 7.88357V11.1523C1.79258 11.4568 1.41456 12.0469 1.41456 12.7242V16.4633C1.41456 17.4503 2.21677 18.2525 3.20372 18.2525C4.19066 18.2525 4.99287 17.4503 4.99287 16.4633V12.7242C4.99287 12.0469 4.61486 11.4568 4.05895 11.1523V8.84657L7.29004 10.6648L5.49746 14.084L6.06534 14.5219C8.7371 16.5865 11.8279 17.6777 15.0009 17.6777C18.1738 17.6777 21.2629 16.5865 23.9364 14.5219L24.5042 14.084L22.7117 10.6631L30.0017 6.56138L30 6.56309ZM3.20372 16.542C3.16267 16.542 3.12504 16.5044 3.12504 16.4633V12.8645H3.28411V16.4633C3.28411 16.5044 3.24648 16.542 3.20543 16.542H3.20372ZM14.9991 1.86784L26.1702 6.75466L14.9991 13.0372L3.82975 6.75466L14.9991 1.86784ZM22.3131 13.5914C20.0827 15.148 17.5683 15.9673 15.0009 15.9673C12.4334 15.9673 9.91904 15.148 7.68687 13.5914L8.78157 11.5029L14.9991 15.0009L21.2167 11.5029L22.3114 13.5914H22.3131Z" fill="#F7768D"/>
</svg>
