<svg width="126" height="82" viewBox="0 0 126 82" fill="none" xmlns="http://www.w3.org/2000/svg">
<g clip-path="url(#clip0_1432_5676)">
<path d="M102.798 11.3726V15.4268H0V11.3726C0 5.11553 5.1217 0 11.3726 0H91.4254C97.6764 0 102.798 5.11553 102.798 11.3726Z" fill="url(#paint0_linear_1432_5676)"/>
<path d="M0 30.1016H102.798V58.2339C102.798 64.491 97.6764 69.6065 91.4254 69.6065H11.3726C5.1217 69.6065 0 64.491 0 58.2339V30.1016Z" fill="url(#paint1_linear_1432_5676)"/>
<path d="M98.683 81.8934C113.77 81.8934 126.001 69.6628 126.001 54.5756C126.001 39.4884 113.77 27.2578 98.683 27.2578C83.5958 27.2578 71.3652 39.4884 71.3652 54.5756C71.3652 69.6628 83.5958 81.8934 98.683 81.8934Z" fill="white"/>
<path d="M98.6823 75.1419C110.041 75.1419 119.249 65.9337 119.249 54.5748C119.249 43.216 110.041 34.0078 98.6823 34.0078C87.3234 34.0078 78.1152 43.216 78.1152 54.5748C78.1152 65.9337 87.3234 75.1419 98.6823 75.1419Z" fill="url(#paint2_linear_1432_5676)"/>
<path d="M110.993 44.0407H102.57C104.051 45.2131 105.125 46.8977 105.427 49.2488H110.993V51.8035H105.476C104.964 57.0116 100.83 60.3314 94.295 60.535C98.2812 64.6694 102.619 69.8775 106.908 75.1411H102.002C98.0221 70.3403 94.2888 65.8974 89.4941 60.7942V57.6286H92.3018C97.8184 57.6286 100.78 55.3331 101.138 51.8096H89.4941V49.255H100.984C100.268 46.293 97.5654 44.812 93.1225 44.812H89.4941V41.4922H110.993V44.0469V44.0407Z" fill="white"/>
</g>
<defs>
<linearGradient id="paint0_linear_1432_5676" x1="12.4093" y1="-17.1608" x2="158.137" y2="86.0939" gradientUnits="userSpaceOnUse">
<stop stop-color="#E45B82"/>
<stop offset="1" stop-color="#BB669B"/>
</linearGradient>
<linearGradient id="paint1_linear_1432_5676" x1="5.10936" y1="14.2983" x2="173.811" y2="133.831" gradientUnits="userSpaceOnUse">
<stop stop-color="#E45B82"/>
<stop offset="1" stop-color="#BB669B"/>
</linearGradient>
<linearGradient id="paint2_linear_1432_5676" x1="78.1152" y1="54.5748" x2="119.255" y2="54.5748" gradientUnits="userSpaceOnUse">
<stop stop-color="#E45B82"/>
<stop offset="1" stop-color="#BB669B"/>
</linearGradient>
<clipPath id="clip0_1432_5676">
<rect width="126" height="81.8855" fill="white"/>
</clipPath>
</defs>
</svg>
