<svg width="103" height="107" viewBox="0 0 103 107" fill="none" xmlns="http://www.w3.org/2000/svg">
<g clip-path="url(#clip0_960_3431)">
<path d="M8.73828 2.17236L39.8874 11.6977L32.1377 25.0301L8.73828 2.17236Z" fill="url(#paint0_linear_960_3431)"/>
<path d="M52.4375 11.1108C52.1064 11.1108 51.7753 11.1409 51.4443 11.1409L49.2172 0.186035L42.6262 12.0739L39.1652 18.3037L34.5004 26.7305L15.8711 56.2093L26.1638 60.8742C26.1638 60.8742 44.7028 44.2462 56.2897 44.5322C56.2897 44.5322 60.8944 69.3762 37.7056 88.3817C48.6755 82.814 61.09 79.6539 74.2268 79.6539C82.3827 79.6539 90.2528 80.8728 97.6714 83.1149C101.117 77.4569 102.998 70.3694 102.998 61.6717C102.998 33.7579 80.3663 11.1108 52.4375 11.1108ZM47.5318 29.2736C46.1173 29.2736 44.9887 28.145 44.9887 26.7305C44.9887 25.316 46.1173 24.1874 47.5318 24.1874C48.9463 24.1874 50.0749 25.3311 50.0749 26.7305C50.0749 28.13 48.9313 29.2736 47.5318 29.2736Z" fill="url(#paint1_linear_960_3431)"/>
<path d="M0.869141 87.9304L1.10991 87.7197L4.6913 87.2983L4.93207 87.509V100.435C4.93207 102.512 6.31647 103.369 7.94165 103.369C8.51347 103.369 9.79254 103.099 10.6051 102.918V87.9454L10.8459 87.7347L14.4273 87.3134L14.6681 87.5241V102.527L15.6462 105.612L15.4505 105.852L12.1701 106.244L11.8992 106.063L10.8158 103.64C10.1085 105.326 8.39308 106.394 6.36162 106.394C3.59281 106.394 0.899236 104.618 0.899236 101.082V87.9454L0.869141 87.9304Z" fill="#75509F"/>
<path d="M18.3689 94.3405L17.4961 91.2556L17.6767 91.0149L20.611 90.6236L20.8518 90.8042L21.8148 93.2269C22.4468 91.5415 24.2375 90.4731 26.0433 90.4731C28.5262 90.4731 30.8737 92.2488 30.8737 95.785V105.807L30.663 106.018H27.4578L27.2471 105.807V96.4171C27.2471 94.3405 26.0734 93.4827 24.6137 93.4827C24.1021 93.4827 22.7177 93.7536 21.9804 93.9342V105.807L21.7697 106.018H18.5645L18.3538 105.807V94.3254L18.3689 94.3405Z" fill="#75509F"/>
<path d="M34.1699 91.2258L34.3806 91.0151L37.5858 90.5938L37.7965 90.8044V105.822L37.5858 106.033H34.3806L34.1699 105.822V91.2258Z" fill="#75509F"/>
<path d="M40.3398 104.392L42.0553 102.15L42.3563 102.12C42.3563 102.12 43.9513 103.264 45.5916 103.264C46.8556 103.264 48.0444 102.933 48.0444 101.548C48.0444 100.646 46.8104 100.254 45.4712 99.863C43.229 99.2009 40.5204 98.298 40.5204 95.2132C40.5204 91.8876 43.6052 90.4731 46.5998 90.4731C49.3535 90.4731 51.2797 91.9779 51.2797 91.9779L51.3098 92.2789L49.5642 94.521L49.2933 94.5511C49.2933 94.5511 47.939 93.5881 46.66 93.5881C45.2455 93.5881 44.2071 94.19 44.2071 95.2132C44.2071 96.2365 45.4712 96.6277 46.8706 97.019C49.1128 97.651 51.7311 98.4335 51.7311 101.548C51.7311 105.265 48.887 106.379 45.6818 106.379C43.7256 106.379 41.7844 105.717 40.4 104.693L40.3398 104.392Z" fill="#75509F"/>
<path d="M53.7182 95.9656C53.7182 92.7002 56.1108 90.4731 60.2189 90.4731C62.792 90.4731 65.0191 91.6168 66.0725 94.1298L65.9521 94.4006L63.1682 95.3336L62.8673 95.2132C62.3256 94.19 61.3023 93.5881 60.0533 93.5881C58.3981 93.5881 57.3297 94.5511 57.3297 96.4321V100.42C57.3297 102.286 58.383 103.294 60.0533 103.294C61.7236 103.294 62.4459 102.692 63.0178 101.729L63.2886 101.578L66.1026 102.481L66.2531 102.752C65.29 105.175 63.1081 106.409 60.2038 106.409C56.0957 106.409 53.7031 104.137 53.7031 100.916V95.9957L53.7182 95.9656Z" fill="#75509F"/>
<path d="M68.1641 95.9656C68.1641 92.3993 70.9178 90.4731 74.5745 90.4731C78.2311 90.4731 80.9849 92.3993 80.9849 95.9656V100.886C80.9849 104.453 78.2311 106.379 74.5745 106.379C70.9178 106.379 68.1641 104.453 68.1641 100.886V95.9656ZM74.5594 103.279C76.2749 103.279 77.3433 102.286 77.3433 100.405V96.4171C77.3433 94.5511 76.2899 93.573 74.5594 93.573C72.8289 93.573 71.7756 94.5361 71.7756 96.4171V100.405C71.7756 102.271 72.7687 103.279 74.5594 103.279Z" fill="#75509F"/>
<path d="M84.3103 94.3405L83.4375 91.2556L83.6181 91.0149L86.5524 90.6236L86.7932 90.8042L87.7562 93.2269C88.3883 91.5415 90.179 90.4731 91.9847 90.4731C94.4676 90.4731 96.8151 92.2488 96.8151 95.785V105.807L96.6044 106.018H93.3992L93.1885 105.807V96.4171C93.1885 94.3405 92.0148 93.4827 90.5551 93.4827C90.0435 93.4827 88.6591 93.7536 87.9218 93.9342V105.807L87.7111 106.018H84.5059L84.2952 105.807V94.3254L84.3103 94.3405Z" fill="#75509F"/>
</g>
<defs>
<linearGradient id="paint0_linear_960_3431" x1="98.3174" y1="8.06766" x2="135.116" y2="5.45694" gradientUnits="userSpaceOnUse">
<stop offset="0.16" stop-color="#E45B82"/>
<stop offset="0.92" stop-color="#9F6AAC"/>
</linearGradient>
<linearGradient id="paint1_linear_960_3431" x1="15.9983" y1="5.9208e-06" x2="233.498" y2="203" gradientUnits="userSpaceOnUse">
<stop offset="0.16" stop-color="#E45B82"/>
<stop offset="0.92" stop-color="#9F6AAC"/>
</linearGradient>
<clipPath id="clip0_960_3431">
<rect width="102.13" height="106.208" fill="white" transform="translate(0.869141 0.186035)"/>
</clipPath>
</defs>
</svg>
