<?xml version="1.0" encoding="utf-8"?>
<!-- Generator: Adobe Illustrator 28.1.0, SVG Export Plug-In . SVG Version: 6.00 Build 0)  -->
<svg version="1.1" id="Layer_1" xmlns="http://www.w3.org/2000/svg" xmlns:xlink="http://www.w3.org/1999/xlink" x="0px" y="0px"
	 viewBox="0 0 70.8 73.8" style="enable-background:new 0 0 70.8 73.8;" xml:space="preserve">
<style type="text/css">
	.st0{fill:url(#SVGID_1_);}
	.st1{fill:none;}
	.st2{fill:url(#SVGID_00000112608978927419497450000004770085599878997672_);}
	.st3{fill:#7551A0;}
</style>
<g>
	<g>
		
			<linearGradient id="SVGID_1_" gradientUnits="userSpaceOnUse" x1="-266.005" y1="1015.009" x2="-245.7328" y2="1028.8054" gradientTransform="matrix(0.8646 0.5025 0.5025 -0.8646 -213.344 1018.7122)">
			<stop  offset="6.322060e-02" style="stop-color:#E45B83"/>
			<stop  offset="0.3706" style="stop-color:#9F6BAD"/>
			<stop  offset="0.671" style="stop-color:#5C7ABD"/>
			<stop  offset="0.9217" style="stop-color:#1DA2CB"/>
		</linearGradient>
		<polygon class="st0" points="7.2,3.6 27.9,9.9 22.8,18.8 		"/>
	</g>
	<g>
		<path class="st1" d="M33,18.2c-0.9,0-1.7,0.8-1.7,1.7c0,0.9,0.8,1.7,1.7,1.7c0.9,0,1.7-0.8,1.7-1.7C34.7,19,33.9,18.2,33,18.2z"/>
		
			<linearGradient id="SVGID_00000015345530425405679470000002971146584694283411_" gradientUnits="userSpaceOnUse" x1="11.9743" y1="31.5677" x2="69.874" y2="31.5677">
			<stop  offset="6.322060e-02" style="stop-color:#E45B83"/>
			<stop  offset="0.3706" style="stop-color:#9F6BAD"/>
			<stop  offset="0.671" style="stop-color:#5C7ABD"/>
			<stop  offset="0.9217" style="stop-color:#1DA2CB"/>
		</linearGradient>
		<path style="fill:url(#SVGID_00000015345530425405679470000002971146584694283411_);" d="M66.3,57.4c2.3-3.8,3.5-8.5,3.5-14.2
			c0-18.6-15-33.6-33.6-33.6c-0.2,0-0.4,0-0.7,0l-1.5-7.3l-4.4,7.9l-2.3,4.1l-3.1,5.6L12,39.5l6.8,3.1c0,0,12.3-11,20-10.9
			c0,0,3.1,16.5-12.3,29.1c7.3-3.7,15.5-5.8,24.3-5.8C56.2,55.1,61.4,55.9,66.3,57.4z M33,21.6c-0.9,0-1.7-0.8-1.7-1.7
			c0-0.9,0.8-1.7,1.7-1.7c0.9,0,1.7,0.8,1.7,1.7C34.7,20.8,33.9,21.6,33,21.6z"/>
	</g>
</g>
<g>
	<path class="st3" d="M2,60.6l0.2-0.1l2.4-0.3l0.2,0.1v8.6c0,1.4,0.9,1.9,2,1.9c0.4,0,1.2-0.2,1.8-0.3v-10l0.2-0.1l2.4-0.3l0.2,0.1
		v10l0.7,2l-0.1,0.2l-2.2,0.3l-0.2-0.1L8.6,71c-0.5,1.1-1.6,1.8-3,1.8c-1.8,0-3.6-1.2-3.6-3.5V60.6z"/>
	<path class="st3" d="M13.6,64.8l-0.6-2l0.1-0.2l1.9-0.3l0.2,0.1l0.6,1.6c0.4-1.1,1.6-1.8,2.8-1.8c1.6,0,3.2,1.2,3.2,3.5v6.7
		l-0.1,0.1h-2.1l-0.1-0.1v-6.2c0-1.4-0.8-1.9-1.7-1.9c-0.3,0-1.3,0.2-1.7,0.3v7.9l-0.1,0.1h-2.1l-0.1-0.1V64.8z"/>
	<path class="st3" d="M24.1,62.8l0.1-0.1l2.1-0.3l0.1,0.1v10l-0.1,0.1h-2.1l-0.1-0.1V62.8z"/>
	<path class="st3" d="M28.2,71.5l1.1-1.5l0.2,0c0,0,1.1,0.8,2.1,0.8c0.8,0,1.6-0.2,1.6-1.1c0-0.6-0.8-0.9-1.7-1.1
		c-1.5-0.4-3.3-1-3.3-3.1c0-2.2,2-3.2,4-3.2c1.8,0,3.1,1,3.1,1l0,0.2L34.4,65l-0.2,0c0,0-0.9-0.6-1.7-0.6c-0.9,0-1.6,0.4-1.6,1.1
		c0,0.7,0.8,0.9,1.8,1.2c1.5,0.4,3.2,0.9,3.2,3c0,2.5-1.9,3.2-4,3.2c-1.3,0-2.6-0.4-3.5-1.1L28.2,71.5z"/>
	<path class="st3" d="M37.1,65.9c0-2.2,1.6-3.7,4.3-3.7c1.7,0,3.2,0.8,3.9,2.4l-0.1,0.2l-1.8,0.6l-0.2-0.1c-0.4-0.7-1-1.1-1.9-1.1
		c-1.1,0-1.8,0.6-1.8,1.9v2.7c0,1.2,0.7,1.9,1.8,1.9c1.1,0,1.6-0.4,2-1l0.2-0.1l1.9,0.6l0.1,0.2c-0.6,1.6-2.1,2.4-4,2.4
		c-2.7,0-4.3-1.5-4.3-3.7V65.9z"/>
	<path class="st3" d="M46.7,65.9c0-2.4,1.8-3.7,4.3-3.7c2.4,0,4.3,1.3,4.3,3.7v3.3c0,2.4-1.8,3.7-4.3,3.7c-2.4,0-4.3-1.3-4.3-3.7
		V65.9z M51,70.8c1.1,0,1.8-0.7,1.8-1.9v-2.7c0-1.2-0.7-1.9-1.8-1.9c-1.2,0-1.8,0.6-1.8,1.9v2.7C49.1,70.1,49.8,70.8,51,70.8z"/>
	<path class="st3" d="M57.5,64.8l-0.6-2l0.1-0.2l1.9-0.3l0.2,0.1l0.6,1.6c0.4-1.1,1.6-1.8,2.8-1.8c1.6,0,3.2,1.2,3.2,3.5v6.7
		l-0.1,0.1h-2.1l-0.1-0.1v-6.2c0-1.4-0.8-1.9-1.7-1.9c-0.3,0-1.3,0.2-1.7,0.3v7.9l-0.1,0.1h-2.1l-0.1-0.1V64.8z"/>
</g>
</svg>
