<svg width="22" height="24" viewBox="0 0 22 24" fill="none" xmlns="http://www.w3.org/2000/svg">
<path d="M19.2555 8.28625C19.1291 3.84006 15.4754 0.261719 11 0.261719C6.52464 0.261719 2.87094 3.84249 2.74453 8.28868C1.18873 8.56095 0 9.91741 0 11.5534V12.82C0 14.648 1.48773 16.1358 3.3158 16.1358C3.63425 16.1358 3.89436 15.8781 3.89436 15.5596C3.89436 15.5596 3.88464 8.71653 3.87249 8.67034C3.88464 8.62415 3.89436 8.57553 3.89436 8.52448C3.89436 4.60581 7.08133 1.41641 11.0024 1.41641C14.9235 1.41641 18.1105 4.60581 18.1105 8.52448C18.1105 8.57553 18.1178 8.62172 18.1299 8.67034C18.1178 8.71653 18.1105 17.7839 18.1105 17.7839C18.1105 19.1574 16.9923 20.2756 15.6188 20.2756H13.3945C13.1344 19.1963 12.162 18.3917 11.0049 18.3917C9.64597 18.3917 8.54232 19.4953 8.54232 20.8518C8.54232 22.2082 9.64597 23.3119 11.0049 23.3119C12.1644 23.3119 13.1344 22.5072 13.3945 21.4279H15.6188C17.6292 21.4279 19.2628 19.7919 19.2628 17.7839V16.0823C20.8161 15.8076 22.0024 14.4511 22.0024 12.82V11.5534C22.0024 9.91984 20.8137 8.56095 19.2579 8.28868L19.2555 8.28625ZM2.73967 14.9033C1.82564 14.6504 1.1547 13.8118 1.1547 12.82V11.5534C1.1547 10.5592 1.82807 9.7205 2.73967 9.46769V14.9033ZM11 22.1596C10.278 22.1596 9.68972 21.5738 9.68972 20.8518C9.68972 20.1298 10.278 19.5415 11 19.5415C11.722 19.5415 12.3078 20.1298 12.3078 20.8518C12.3078 21.5738 11.722 22.1596 11 22.1596ZM20.8477 12.8175C20.8477 13.8118 20.1744 14.648 19.2603 14.9008V9.46526C20.1744 9.71807 20.8477 10.5567 20.8477 11.551V12.8175Z" fill="black"/>
</svg>
