<svg width="105" height="69" viewBox="0 0 105 69" fill="none" xmlns="http://www.w3.org/2000/svg">
<g clip-path="url(#clip0_998_203)">
<path d="M94.9947 0H26.8479C21.8466 0 17.8047 4.05766 17.8047 9.04324V16.7497C18.3866 16.7025 18.9842 16.6867 19.5819 16.6867C33.941 16.6867 45.5792 28.325 45.5792 42.6684C45.5792 46.5216 44.73 50.2018 43.2201 53.4888H54.7326V60.2359H47.1677C44.84 60.2359 42.9685 62.1231 42.9685 64.4351C42.9685 66.747 44.8558 68.6343 47.1677 68.6343H74.6434C76.9711 68.6343 78.8426 66.747 78.8426 64.4351C78.8426 62.1231 76.9553 60.2359 74.6434 60.2359H67.0786V53.4888H94.9789C99.9645 53.4888 104.006 49.4469 104.006 44.4456V9.04324C104.006 4.05766 99.9645 0 94.9789 0H94.9947Z" fill="#D971C8"/>
<path d="M31.3604 53.0327C30.7627 51.4599 29.3945 50.2646 27.6173 50.2646H25.6513V44.3511C25.6513 43.1716 24.865 42.3852 23.6854 42.3852H11.8584V38.4376H15.806C16.9856 38.4376 17.7719 37.6513 17.7719 36.4717V32.5242H21.7195C23.8899 32.5242 25.6671 30.747 25.6671 28.5766V27.7902C31.3918 30.1493 35.5281 35.8741 35.5281 42.3852C35.5281 46.5215 33.9554 50.2804 31.3918 53.0327M17.7562 57.9553C10.0655 56.9645 3.94757 50.2646 3.94757 42.3695C3.94757 41.1899 4.15203 40.0104 4.34076 38.8151L13.8086 48.283V50.2489C13.8086 52.4193 15.5858 54.1965 17.7562 54.1965M19.7221 22.6631C8.87024 22.6631 0 31.5333 0 42.3852C0 53.2371 8.87024 62.1074 19.7221 62.1074C30.574 62.1074 39.4443 53.2371 39.4443 42.3852C39.4443 31.5333 30.574 22.6631 19.7221 22.6631Z" fill="#D971C8"/>
</g>
<defs>
<clipPath id="clip0_998_203">
<rect width="104.021" height="68.65" fill="white"/>
</clipPath>
</defs>
</svg>
